<?xml version="1.0" standalone="no"?>
<!DOCTYPE svg PUBLIC "-//W3C//DTD SVG 20010904//EN"
 "http://www.w3.org/TR/2001/REC-SVG-20010904/DTD/svg10.dtd">
<svg version="1.0" xmlns="http://www.w3.org/2000/svg"
 width="900.000000pt" height="900.000000pt" viewBox="0 0 900.000000 900.000000"
 preserveAspectRatio="xMidYMid meet">
<metadata>
Created by potrace 1.14, written by Peter Selinger 2001-2017
</metadata>
<g transform="translate(0.000000,900.000000) scale(0.100000,-0.100000)"
fill="#000000" stroke="none">
<path d="M5007 8094 c-1 -1 -76 -4 -167 -7 -91 -4 -178 -8 -195 -11 -45 -7
-105 -16 -155 -22 -25 -3 -62 -7 -83 -10 -21 -2 -48 -6 -60 -9 -12 -3 -33 -7
-47 -9 -14 -2 -45 -9 -70 -15 -25 -5 -56 -12 -70 -14 -109 -20 -464 -147 -490
-176 -3 -4 -31 -19 -62 -36 -32 -16 -58 -33 -58 -37 0 -4 -5 -8 -10 -8 -18 0
-209 -130 -225 -153 -8 -12 -15 -19 -15 -15 0 7 -54 -38 -102 -83 -15 -15 -30
-24 -33 -21 -3 3 -5 1 -5 -5 0 -5 -31 -41 -68 -79 -76 -77 -152 -164 -209
-239 -21 -27 -44 -54 -50 -58 -7 -4 -13 -15 -13 -22 0 -8 -4 -15 -10 -15 -5 0
-10 -7 -10 -15 0 -8 -3 -15 -7 -15 -5 0 -26 -30 -48 -66 -22 -37 -50 -79 -62
-94 -13 -15 -23 -32 -23 -38 0 -6 -4 -12 -9 -14 -10 -4 -91 -145 -91 -159 0
-5 -4 -9 -10 -9 -5 0 -10 -4 -10 -9 0 -5 -16 -37 -35 -71 -19 -34 -35 -68 -35
-75 0 -7 -4 -15 -9 -17 -10 -4 -117 -233 -190 -408 -29 -69 -63 -147 -76 -175
-13 -27 -33 -78 -45 -113 -11 -34 -27 -79 -35 -100 -7 -20 -41 -116 -75 -212
-34 -96 -80 -211 -102 -255 -36 -72 -135 -232 -163 -261 -5 -7 -19 -24 -30
-40 -11 -15 -25 -32 -30 -38 -6 -6 -24 -29 -40 -51 -17 -22 -54 -69 -83 -105
-64 -79 -59 -71 -103 -145 -48 -79 -68 -123 -74 -156 -3 -16 -9 -38 -13 -51
-10 -27 -9 -30 7 -87 23 -80 166 -195 318 -258 29 -12 53 -20 53 -17 0 2 13
-2 30 -11 17 -9 33 -27 36 -42 9 -33 9 -257 1 -303 -4 -19 -9 -55 -12 -80 -16
-142 -129 -464 -230 -650 -29 -54 -37 -149 -18 -215 51 -175 212 -318 549
-489 84 -42 282 -127 304 -129 8 -1 17 -4 20 -7 9 -10 145 -59 310 -111 91
-28 167 -54 170 -56 2 -2 5 -216 6 -476 1 -260 2 -479 3 -487 3 -48 98 -103
157 -90 39 9 90 54 100 88 11 41 11 41 13 51 1 11 2188 13 2229 2 19 -5 34
-20 48 -51 23 -46 60 -84 74 -75 5 3 11 1 15 -5 9 -15 60 -12 100 7 23 11 42
30 54 57 18 39 19 69 19 577 0 378 3 543 11 558 7 11 46 44 89 72 71 48 191
140 236 180 10 10 34 30 52 46 74 61 199 185 196 194 -1 6 1 8 6 5 5 -3 23 13
41 34 18 22 53 61 79 87 26 27 76 84 112 128 36 44 68 82 71 85 30 26 289 399
289 417 0 4 6 14 14 22 7 9 29 45 49 81 19 36 54 98 76 139 23 41 41 75 41 77
0 2 16 36 36 76 57 117 113 246 151 348 38 104 93 266 98 290 2 8 12 44 23 80
11 36 23 79 28 95 4 17 9 35 10 40 6 17 44 169 48 190 2 11 7 31 10 45 3 14 8
39 11 55 3 17 8 39 10 50 2 11 7 36 10 54 3 19 12 73 20 120 28 162 40 326 37
516 -1 171 -9 325 -16 345 -2 8 -7 38 -10 65 -9 77 -15 118 -22 147 -3 15 -5
30 -5 33 0 2 -6 22 -14 44 -7 22 -16 54 -19 73 -6 39 -90 297 -113 348 -36 80
-126 255 -160 308 -48 77 -114 174 -130 190 -7 7 -13 16 -13 20 0 4 -13 21
-28 38 -15 18 -47 56 -72 85 -47 55 -191 201 -251 254 -79 70 -188 155 -198
155 -6 0 -11 3 -11 8 0 4 -21 19 -47 32 -27 14 -50 28 -53 31 -10 12 -163 89
-176 89 -8 0 -14 5 -14 10 0 6 -8 10 -18 10 -10 0 -28 7 -40 16 -12 8 -22 12
-22 8 0 -3 -6 -2 -12 3 -25 19 -287 102 -345 109 -12 1 -37 7 -55 12 -45 14
-131 30 -198 37 -30 3 -66 8 -80 10 -63 13 -473 37 -483 29z"/>
</g>
</svg>
