<?xml version="1.0" standalone="no"?>
<!DOCTYPE svg PUBLIC "-//W3C//DTD SVG 20010904//EN"
 "http://www.w3.org/TR/2001/REC-SVG-20010904/DTD/svg10.dtd">
<svg version="1.0" xmlns="http://www.w3.org/2000/svg"
 width="1024.000000pt" height="1024.000000pt" viewBox="0 0 1024.000000 1024.000000"
 preserveAspectRatio="xMidYMid meet">
<metadata>
Created by potrace 1.14, written by Peter Selinger 2001-2017
</metadata>
<g transform="translate(0.000000,1024.000000) scale(0.100000,-0.100000)"
fill="#000000" stroke="none">
<path d="M0 5120 l0 -5120 339 0 339 0 120 233 c67 127 139 270 160 317 22 47
83 177 135 290 52 113 133 283 180 378 48 95 89 183 93 195 3 12 14 31 23 41
15 18 15 19 -4 12 -11 -5 -27 -9 -35 -11 -8 -1 -9 0 -3 2 16 5 17 23 2 23 -5
0 -7 5 -3 11 5 8 9 8 14 -1 5 -8 10 -9 14 -2 3 6 2 13 -4 17 -6 4 -7 11 -4 17
5 7 -2 9 -20 4 -14 -3 -26 -2 -26 3 0 5 -10 12 -22 15 -22 6 -22 7 -5 20 21
16 22 26 1 26 -13 0 -13 2 -2 13 7 8 20 16 28 20 9 3 4 6 -12 6 -16 1 -28 -3
-28 -9 0 -5 -7 -10 -16 -10 -23 0 -11 24 14 28 30 5 28 22 -3 22 -14 0 -24 5
-23 12 2 7 -7 14 -20 16 -19 3 -21 6 -11 18 6 8 23 14 38 15 25 0 25 1 5 9
-12 5 -25 13 -29 19 -3 6 -22 11 -42 11 -35 0 -36 0 -18 20 10 11 22 17 28 13
6 -4 8 0 4 11 -4 10 -7 20 -7 22 0 2 -16 4 -35 4 -28 0 -38 -5 -45 -22 -5 -13
-9 -17 -9 -10 -1 7 -6 10 -11 7 -6 -4 -8 -11 -5 -16 4 -5 -1 -12 -9 -15 -9 -3
-16 -11 -16 -18 0 -6 -11 -23 -25 -38 -13 -14 -33 -40 -43 -58 -18 -28 -20
-29 -25 -11 -7 28 53 127 106 173 43 39 61 46 72 27 4 -5 17 -9 28 -8 12 1 30
-2 40 -6 10 -4 21 -5 24 -1 4 3 -2 6 -12 6 -17 0 -17 1 -3 13 9 6 18 24 22 39
5 24 9 26 41 21 19 -3 35 -1 35 4 0 5 19 9 43 9 29 -1 42 -5 42 -15 0 -8 6
-16 13 -18 7 -3 12 4 12 16 0 19 2 19 28 8 15 -6 32 -19 39 -28 7 -9 23 -19
36 -21 20 -4 23 -1 19 15 -5 20 -5 20 21 1 14 -10 28 -29 32 -41 3 -13 12 -23
21 -23 8 0 12 -5 9 -10 -7 -12 5 -13 23 -2 16 11 15 15 -87 225 -44 93 -81
171 -81 174 0 2 -13 35 -29 71 -30 71 -47 186 -31 212 7 12 28 8 137 -28 169
-55 299 -75 428 -67 145 9 258 32 355 71 69 28 94 44 132 87 27 28 55 68 64
87 9 19 27 56 40 82 27 55 17 61 -28 18 -56 -54 -46 -30 15 35 15 16 35 54 43
85 9 30 22 73 29 95 8 22 17 65 20 95 3 30 9 57 13 61 6 6 83 -50 177 -129 11
-9 56 -46 100 -82 44 -35 82 -68 83 -72 8 -18 22 -4 63 64 94 159 195 304 265
379 41 43 74 81 74 84 0 13 -141 67 -187 72 -47 5 -148 -8 -191 -24 -10 -4
-13 -2 -8 5 22 36 190 90 238 77 13 -3 63 -25 111 -48 l88 -42 49 55 c28 30
50 58 50 61 0 3 14 23 30 44 33 42 38 57 15 49 -8 -4 -15 -13 -15 -21 0 -10
-6 -13 -16 -9 -9 3 -18 6 -21 6 -3 0 0 7 7 15 19 23 5 30 -39 17 -37 -11 -57
-34 -46 -51 2 -5 -7 -6 -20 -3 -22 4 -36 22 -17 22 4 0 13 12 19 27 10 21 10
28 1 34 -15 9 -14 9 35 32 20 9 37 23 37 32 0 21 -7 19 -42 -10 -32 -27 -59
-35 -34 -9 23 23 20 37 -6 28 -27 -8 -47 -32 -49 -59 -1 -11 -5 0 -8 25 -7 47
3 75 23 63 22 -15 76 6 76 29 0 5 -10 2 -22 -6 -29 -21 -39 -20 -31 2 6 14 4
15 -9 5 -8 -7 -18 -10 -21 -6 -9 9 12 33 29 33 8 0 14 5 14 11 0 13 -40 5 -84
-17 -16 -8 -36 -14 -45 -13 -10 0 -12 2 -3 6 23 9 2 22 -22 13 -13 -5 -27 -5
-32 0 -5 5 -31 4 -59 -1 -27 -5 -88 -11 -135 -13 -47 -3 -93 -7 -103 -11 -13
-5 -16 -3 -12 8 4 10 -2 17 -20 21 -19 5 -25 11 -21 23 7 17 -2 16 -94 -6 -25
-6 -55 -13 -67 -16 -35 -8 -28 -28 7 -21 78 15 95 17 80 7 -8 -5 -49 -12 -90
-16 l-75 -6 30 26 c30 25 44 30 157 55 49 11 117 54 105 66 -9 9 -59 -17 -77
-39 -10 -12 -22 -19 -26 -15 -4 4 -1 14 6 23 11 13 8 13 -19 4 -45 -16 -50 -3
-7 17 20 10 36 22 36 26 0 5 -9 4 -19 -2 -25 -13 -31 -13 -31 1 0 5 16 17 35
25 42 17 48 39 8 30 -21 -5 -24 -4 -13 4 11 7 -6 10 -59 10 -61 0 -72 2 -62
14 6 7 25 16 41 20 37 7 39 23 5 32 -14 3 -25 10 -25 15 0 12 17 11 25 -1 3
-5 14 -10 23 -9 14 0 14 2 2 6 -8 4 -21 15 -30 25 -15 19 -98 44 -109 33 -3
-4 3 -14 14 -22 20 -16 20 -16 0 -8 -11 4 -33 12 -50 18 -16 5 -41 15 -55 21
l-25 10 33 4 c17 2 32 7 32 12 0 11 -65 30 -102 30 -16 0 -28 4 -28 9 0 5 -10
12 -22 15 -13 2 -4 4 19 3 37 -2 40 -1 32 16 -6 10 -21 22 -35 27 -13 5 -24
14 -24 19 0 5 -26 19 -57 31 -59 22 -83 37 -83 50 0 9 41 -3 97 -27 43 -18
168 -29 159 -14 -4 6 -14 11 -23 11 -8 0 -28 9 -44 21 -24 17 -29 18 -29 5 0
-13 -5 -13 -32 4 -18 11 -46 20 -61 20 -30 0 -77 26 -77 42 0 6 8 7 18 3 24
-10 162 -16 162 -7 0 4 -14 13 -31 19 -17 7 -28 16 -25 22 4 6 14 7 23 4 11
-4 14 -3 9 5 -4 7 -21 12 -39 12 -30 0 -30 1 -11 16 13 11 15 17 7 20 -24 10
-13 26 13 20 37 -10 20 12 -25 32 -35 15 -36 15 -11 22 l25 7 -25 11 c-38 15
-109 81 -88 82 9 0 19 -4 22 -9 7 -11 85 -25 93 -17 10 10 -19 36 -40 36 -11
0 -17 3 -14 7 12 11 -32 35 -53 28 -22 -7 -28 10 -7 18 8 4 3 14 -16 32 -17
15 -27 32 -23 40 7 20 51 19 71 -1 9 -9 18 -14 21 -12 8 9 -13 52 -35 72 l-20
19 25 19 c23 19 27 19 64 4 l39 -16 -19 34 c-25 46 -12 55 21 15 31 -39 60
-33 34 7 -22 35 -11 47 39 39 37 -5 39 -4 23 9 -12 9 -14 15 -6 18 7 2 -2 10
-19 17 -39 16 -42 35 -4 27 26 -6 27 -6 4 7 -12 7 -20 16 -17 19 3 3 -7 8 -22
11 -26 5 -26 4 -8 -9 16 -12 16 -14 3 -14 -9 0 -20 5 -23 10 -3 6 -21 11 -38
11 l-32 1 30 7 c26 6 27 8 11 14 -10 4 -16 10 -13 13 3 3 14 1 24 -4 10 -5 33
-12 52 -16 34 -6 34 -6 16 14 -18 19 -17 20 5 20 29 0 23 7 -10 13 -42 8 -58
18 -75 43 -8 13 -24 24 -35 24 -11 0 -20 5 -20 10 0 6 -21 11 -47 12 l-48 1
44 4 c23 3 57 -1 75 -7 64 -24 86 -29 86 -19 0 5 -14 12 -30 16 -52 10 -71 68
-20 61 17 -3 30 -1 30 3 0 12 -35 29 -58 29 -10 0 -19 7 -19 15 0 8 4 15 9 15
17 0 -57 90 -79 96 -31 8 -29 22 7 42 24 13 29 22 25 40 -5 22 8 31 20 12 10
-16 25 -12 19 5 -4 8 -10 13 -14 10 -4 -3 -13 2 -20 10 -11 13 -9 15 11 13 16
-2 24 3 27 17 2 11 9 23 16 27 8 5 7 13 -2 29 -12 19 -12 21 1 16 8 -3 19 -1
25 5 8 8 16 6 27 -6 9 -9 22 -13 28 -9 9 5 7 8 -3 11 -9 1 -21 11 -28 22 -11
17 -10 20 8 20 31 0 24 26 -15 56 -37 28 -44 44 -20 44 8 0 15 3 15 6 0 9 -63
99 -72 102 -4 2 -5 8 -2 13 3 6 -1 18 -8 27 -32 37 -33 45 -4 38 31 -8 35 8 6
24 -31 16 -24 26 15 22 40 -5 42 1 15 46 -11 17 -15 32 -9 32 7 0 8 11 4 30
-6 26 -3 31 20 40 16 6 23 14 19 21 -5 9 1 10 21 5 21 -5 32 -2 47 14 11 12
17 27 15 34 -3 8 -2 17 3 22 12 14 40 106 49 164 7 41 5 53 -6 57 -8 3 -11 13
-8 23 4 11 -1 20 -12 24 -14 6 -15 9 -4 15 10 7 9 10 -8 16 -12 3 -19 10 -16
15 3 4 -5 11 -18 14 l-22 6 24 19 c23 17 23 18 4 23 -11 3 -27 20 -36 37 -16
31 -15 32 9 41 22 9 34 22 16 19 -18 -3 -30 2 -35 15 -4 10 -1 13 9 9 7 -3 14
-1 14 5 0 6 -5 12 -11 14 -6 2 -18 51 -28 108 -18 108 -18 231 0 302 11 42 66
126 118 181 31 33 34 40 23 57 -14 24 -16 50 -2 50 10 0 8 84 -4 110 -9 22 -2
100 10 108 6 4 13 15 17 25 3 9 16 17 27 17 17 0 20 7 22 43 4 92 -15 167 -43
167 -7 0 -9 10 -5 25 4 17 1 27 -12 34 -21 11 -28 67 -11 87 6 8 9 27 7 44 -3
19 0 31 9 34 9 4 11 14 7 32 -6 23 -4 26 10 21 10 -4 16 -1 16 8 0 8 -5 15
-11 15 -7 0 -9 9 -5 24 4 15 1 26 -7 29 -9 3 -9 7 0 19 7 8 10 18 6 21 -3 4
-2 7 4 7 6 0 13 -9 16 -20 9 -35 23 -21 19 19 -3 33 -1 39 15 38 12 -2 18 4
17 19 0 17 5 20 28 18 30 -4 37 13 16 34 -9 9 -8 12 6 12 14 0 17 7 14 33 -2
27 1 33 20 35 18 3 21 8 16 30 -13 57 -16 93 -8 91 26 -4 54 15 54 37 0 15 6
24 16 24 8 0 12 5 9 10 -3 6 0 10 8 10 8 0 20 7 27 15 10 12 28 15 69 13 43
-2 55 0 53 11 -2 10 4 12 22 7 14 -3 34 -2 43 3 48 24 71 32 84 31 8 -1 33 -2
56 -1 33 1 41 4 37 16 -5 13 -3 13 22 0 16 -8 37 -12 48 -9 10 4 22 0 26 -7
16 -25 55 -15 125 31 143 96 293 156 460 185 140 24 314 45 368 45 26 0 57 5
68 11 11 6 105 12 217 14 117 2 209 8 227 15 17 7 49 9 74 6 25 -4 49 -2 57 5
7 6 43 12 81 13 37 2 75 6 83 10 19 8 140 16 250 17 155 0 495 -30 522 -47 7
-5 33 -11 58 -15 70 -10 171 -39 220 -63 25 -13 72 -28 105 -36 86 -18 137
-36 204 -69 66 -34 198 -135 245 -189 17 -19 43 -42 57 -51 14 -9 58 -45 98
-81 40 -36 132 -107 204 -158 125 -87 173 -120 309 -207 81 -52 222 -187 271
-259 22 -34 57 -81 76 -106 47 -62 184 -347 215 -450 19 -61 32 -141 45 -285
16 -166 25 -215 50 -289 17 -48 40 -138 52 -200 11 -61 24 -124 29 -141 26
-91 38 -478 15 -515 -4 -7 -9 -26 -10 -41 -2 -15 -10 -38 -19 -50 -22 -33 -21
-36 23 -58 53 -27 117 -104 142 -171 17 -44 21 -75 20 -160 -1 -58 -6 -130
-11 -160 -5 -30 -12 -76 -15 -102 -5 -39 -10 -48 -26 -48 -17 0 -19 -8 -20
-92 -1 -134 -16 -81 -24 83 -5 96 -3 130 4 119 6 -8 11 -24 11 -35 0 -11 4
-26 8 -33 5 -7 8 35 8 93 -1 58 -4 105 -8 105 -5 0 -8 9 -8 20 0 11 4 20 9 20
20 0 2 125 -24 173 -22 39 -30 46 -56 45 -37 -1 -37 -1 -51 60 -7 29 -17 50
-23 48 -16 -5 -9 -121 9 -149 14 -20 18 -77 26 -313 14 -389 14 -608 1 -673
-8 -39 -8 -57 0 -61 13 -9 -57 -21 -77 -13 -7 3 -12 9 -9 13 3 5 -2 13 -11 18
-9 5 -13 12 -8 15 5 3 6 71 2 154 -3 81 -11 272 -17 423 -6 151 -16 371 -22
488 -6 117 -8 216 -5 219 3 3 27 -11 55 -31 51 -38 65 -36 57 9 -3 16 0 25 9
25 7 0 16 7 19 16 9 23 7 36 -3 29 -5 -3 -12 -1 -16 4 -3 5 2 14 11 19 13 7
14 15 6 46 -7 25 -7 34 0 30 21 -13 27 20 8 46 -11 15 -15 31 -11 36 5 5 11
33 13 62 3 33 2 48 -4 40 -7 -10 -11 -9 -20 6 -13 23 -19 88 -6 80 13 -8 9 21
-4 34 -10 10 -10 17 -1 31 10 16 9 18 -9 13 -17 -4 -19 -2 -13 17 5 16 2 21
-12 22 -10 0 -13 3 -6 6 9 3 10 10 3 22 -5 10 -6 21 -3 25 3 3 1 6 -5 6 -7 0
-12 -5 -12 -12 0 -9 -3 -9 -12 0 -9 9 -7 16 7 32 18 19 18 20 -1 21 -11 0 -13
3 -7 6 23 9 14 26 -9 20 -22 -6 -22 -6 2 14 l25 21 -29 -7 c-23 -5 -27 -3 -23
9 4 9 1 16 -6 16 -8 0 -8 3 2 9 11 7 11 15 0 45 -7 20 -17 36 -22 36 -5 0 -4
7 4 16 11 13 9 14 -14 9 -31 -8 -37 8 -9 25 15 10 14 11 -5 7 -15 -4 -23 0
-23 9 0 8 7 14 15 14 8 0 15 5 15 11 0 6 -6 9 -14 6 -22 -9 -28 5 -8 19 9 7
13 16 8 21 -5 4 -11 2 -13 -4 -3 -7 -9 -13 -15 -13 -6 0 -8 7 -4 15 3 8 1 15
-4 15 -6 0 -10 7 -10 15 0 8 -7 15 -16 15 -8 0 -13 4 -10 9 4 5 0 11 -6 14
-11 3 -11 7 0 19 10 13 9 15 -12 11 -18 -4 -25 1 -31 19 -4 12 -6 29 -6 36 1
6 -2 12 -6 12 -5 0 -10 15 -11 32 -3 40 -17 57 -34 40 -16 -16 -28 -15 -28 3
0 8 -7 15 -16 15 -8 0 -12 5 -9 10 3 6 -1 10 -9 10 -9 0 -16 7 -16 15 0 8 -7
15 -16 15 -11 0 -13 6 -9 19 4 14 -1 23 -17 33 -22 11 -26 13 -45 17 -5 1 -1
6 7 12 12 8 8 10 -17 7 -22 -3 -35 1 -44 14 -8 10 -21 18 -31 18 -10 0 -18 6
-18 13 0 21 -33 54 -49 49 -8 -3 -11 0 -7 7 5 7 -1 11 -13 11 -12 0 -21 5 -21
11 0 8 -5 8 -15 -1 -12 -10 -16 -9 -21 4 -4 10 -13 14 -24 11 -13 -4 -22 2
-31 24 -11 25 -16 28 -28 18 -12 -9 -13 -9 -7 1 5 8 0 13 -16 14 -13 1 -32 2
-43 3 -11 1 -19 7 -18 13 2 6 -5 11 -15 9 -9 -1 -19 3 -21 8 -7 18 -41 36 -53
29 -7 -5 -8 -3 -3 6 5 9 2 10 -14 5 -12 -4 -21 -2 -21 4 0 6 -5 11 -11 11 -5
0 -7 -5 -3 -11 4 -8 0 -8 -15 0 -11 7 -21 17 -21 24 0 9 -2 9 -8 1 -5 -8 -21
-5 -56 12 -27 13 -52 21 -56 19 -5 -3 -16 -2 -25 1 -13 6 -14 9 -3 16 8 6 2 7
-19 3 -21 -4 -33 -3 -33 4 0 6 -5 11 -11 11 -5 0 -8 -4 -5 -9 4 -5 -3 -7 -14
-4 -11 3 -20 9 -20 13 0 4 -17 11 -37 15 -21 4 -47 12 -58 18 -11 6 -27 10
-36 9 -9 -2 -38 7 -64 18 -28 12 -60 19 -75 16 -14 -3 -19 -3 -12 0 27 12 9
19 -51 21 -39 0 -61 5 -60 12 4 15 -14 14 -19 -1 -4 -10 -10 -10 -31 -1 -16 8
-27 9 -27 3 0 -6 -10 -10 -21 -10 -18 0 -20 2 -9 16 12 13 10 14 -14 3 -18 -9
-30 -9 -34 -3 -8 12 -52 13 -52 2 0 -4 -17 -1 -39 7 -26 9 -42 10 -49 3 -12
-12 -55 -1 -47 13 9 13 -9 11 -23 -3 -9 -9 -15 -9 -23 -1 -7 7 -21 8 -39 3
-20 -6 -35 -4 -49 7 -12 8 -21 10 -21 5 0 -6 -9 -8 -19 -5 -10 3 -28 0 -40 -6
-18 -10 -21 -9 -21 6 -1 16 -2 16 -13 3 -14 -18 -87 -15 -87 3 0 8 -3 8 -9 -1
-4 -8 -27 -15 -50 -15 -22 -1 -41 -5 -41 -10 0 -4 -12 -4 -26 -1 -17 4 -25 3
-21 -3 4 -6 -13 -11 -41 -12 -26 -1 -51 -2 -57 -3 -5 0 -19 3 -30 7 -16 5 -17
5 -5 -4 18 -13 19 -13 -50 -17 -100 -6 -106 -8 -215 -59 -16 -8 -61 -23 -100
-35 -38 -11 -90 -29 -115 -40 -25 -10 -79 -31 -120 -45 -122 -44 -150 -56
-252 -103 -54 -26 -98 -52 -98 -59 0 -8 -9 -11 -29 -7 -21 4 -39 0 -62 -17
-76 -51 -89 -59 -99 -59 -5 0 -10 -4 -10 -10 0 -5 -3 -9 -7 -9 -18 3 -33 -2
-47 -16 -8 -9 -33 -16 -55 -18 -34 -2 -41 -5 -39 -22 3 -47 -3 -67 -22 -72
-11 -3 -18 -9 -15 -13 7 -12 -25 -41 -36 -34 -14 9 -59 -24 -59 -43 0 -9 -3
-13 -7 -10 -10 11 -32 -13 -26 -29 3 -10 -2 -14 -18 -14 -13 0 -34 -9 -47 -18
-19 -15 -21 -20 -10 -29 16 -13 109 -36 116 -29 10 10 -43 46 -62 41 -18 -4
-18 -3 -3 13 13 13 20 13 29 4 17 -17 38 -15 60 5 19 17 77 21 87 5 3 -5 13
-12 21 -16 15 -6 -20 -1 -65 10 -40 10 -30 -13 17 -37 29 -15 52 -19 76 -15
26 4 45 -1 79 -21 24 -14 42 -27 40 -29 -2 -2 -39 5 -83 16 -43 11 -84 18 -91
16 -7 -3 -19 4 -26 14 -13 19 -77 40 -77 26 0 -3 25 -18 55 -32 61 -29 67 -43
11 -24 -39 13 -74 3 -40 -12 12 -5 2 -6 -26 -2 -25 3 -63 7 -84 9 -22 2 -44 9
-50 15 -5 5 -28 10 -50 10 l-41 -1 30 -14 30 -14 -32 6 c-24 4 -33 1 -42 -14
-9 -18 -7 -20 14 -15 15 2 25 0 25 -7 0 -6 -9 -11 -21 -11 -12 0 -19 -5 -16
-12 2 -7 18 -13 34 -13 20 0 29 -4 26 -12 -7 -17 -12 -16 -56 7 -43 23 -107
19 -107 -7 0 -8 -4 -11 -10 -8 -5 3 -22 -5 -36 -19 -15 -13 -51 -36 -80 -51
-29 -15 -54 -30 -56 -34 -2 -4 -25 -22 -53 -41 -27 -19 -70 -54 -94 -78 -25
-23 -54 -45 -65 -48 -12 -3 -33 -23 -48 -44 -15 -22 -38 -42 -50 -45 -13 -4
-36 -26 -53 -50 -16 -24 -40 -47 -52 -50 -13 -3 -23 -12 -23 -19 0 -17 -56
-66 -76 -66 -8 0 -23 -9 -34 -20 -11 -11 -40 -25 -65 -31 -25 -6 -45 -15 -45
-20 0 -5 -11 -9 -25 -9 -14 0 -25 5 -25 11 0 5 -4 8 -9 5 -5 -4 -8 -14 -6 -24
3 -18 -12 -42 -26 -42 -5 0 -9 7 -9 15 0 8 -4 15 -9 15 -19 0 -23 -21 -11 -51
14 -32 7 -50 -12 -31 -7 7 -21 12 -31 12 -16 0 -18 -4 -12 -27 5 -16 8 -38 9
-50 1 -26 71 -109 109 -129 15 -8 33 -11 40 -7 7 4 19 8 27 8 9 0 15 9 14 22
0 12 3 20 7 17 4 -2 20 7 36 22 15 14 73 59 128 100 55 40 127 93 160 118 237
176 562 291 850 302 55 2 107 7 115 10 8 3 56 8 105 10 50 2 114 9 144 14 55
10 128 14 120 6 -2 -2 -42 -9 -89 -16 -108 -14 -277 -47 -311 -61 -14 -5 -34
-24 -44 -42 -19 -34 -39 -49 -67 -54 -9 -1 -56 -21 -105 -44 -103 -49 -183
-125 -303 -288 l-75 -102 -50 5 c-27 3 -107 8 -177 12 l-128 7 -35 -39 c-19
-21 -35 -42 -35 -46 0 -5 -8 -17 -17 -28 -10 -10 -31 -44 -48 -75 -34 -66 -51
-77 -76 -47 -29 36 -109 56 -124 31 -4 -6 7 -28 24 -50 32 -39 33 -59 4 -59
-14 0 -13 -3 4 -22 22 -26 20 -58 -5 -58 -13 0 -12 -3 5 -15 12 -8 36 -38 54
-65 18 -28 38 -50 45 -50 17 0 54 -49 54 -71 0 -11 5 -19 10 -19 6 0 10 -8 10
-17 0 -15 -2 -16 -10 -3 -9 13 -10 13 -10 0 0 -8 23 -34 50 -58 28 -24 50 -49
50 -57 0 -7 6 -16 13 -19 9 -3 7 -8 -5 -16 -21 -13 -13 -38 19 -63 30 -24 29
-39 -2 -31 -31 8 -34 -12 -6 -47 10 -13 17 -34 15 -47 -3 -14 2 -25 11 -29 10
-3 13 -12 10 -23 -3 -11 1 -20 11 -24 13 -5 14 -9 4 -21 -7 -9 -9 -26 -5 -45
4 -19 3 -30 -4 -30 -6 0 -11 -4 -11 -10 0 -5 7 -10 15 -10 8 0 15 -7 15 -15 0
-8 5 -15 12 -15 6 0 9 -3 6 -6 -4 -3 -16 0 -28 6 -33 18 -38 3 -8 -25 18 -16
44 -26 80 -31 32 -4 62 -15 76 -28 17 -15 25 -17 31 -8 5 9 16 9 41 2 19 -6
51 -10 70 -10 19 -1 46 -7 60 -15 29 -16 60 -19 60 -6 0 5 -9 13 -20 16 -11 3
-20 11 -20 16 0 6 8 5 21 -1 13 -7 40 -9 69 -5 33 5 50 3 55 -6 5 -8 4 -10 -3
-5 -6 4 -28 -2 -49 -14 l-38 -20 50 6 c28 4 65 13 84 20 21 9 58 13 97 10 35
-2 61 0 59 4 -5 8 136 20 144 13 7 -5 -34 -40 -55 -47 -10 -3 4 -3 31 0 28 3
58 10 67 15 23 12 61 11 53 -1 -3 -6 -19 -10 -36 -10 -16 0 -29 -4 -29 -10 0
-13 57 -13 65 0 3 5 21 10 40 10 20 0 35 6 39 15 6 18 -5 20 -22 3 -6 -6 -15
-9 -19 -5 -14 15 14 26 76 31 35 3 67 10 71 16 5 8 34 10 99 5 86 -7 93 -6
107 13 11 16 30 23 74 28 33 4 60 12 60 18 0 6 8 21 18 33 13 18 31 24 82 29
36 4 70 12 75 19 26 31 91 37 441 40 413 4 567 19 647 63 56 30 122 104 114
126 -4 11 -1 13 10 9 10 -4 14 -2 10 4 -9 15 67 149 82 145 8 -1 24 4 36 12
22 15 25 14 55 -20 27 -31 39 -37 90 -43 76 -9 93 -23 85 -72 -5 -31 -3 -39
13 -48 15 -8 24 -5 46 17 14 16 26 33 26 38 0 6 11 16 24 22 13 6 34 29 47 51
24 44 34 50 43 26 3 -8 10 -15 17 -15 7 0 9 18 6 56 -3 30 -3 54 -1 52 5 -6
55 -149 62 -178 4 -21 62 -112 62 -98 0 3 -7 24 -15 47 -16 47 -55 205 -140
566 -9 38 -11 73 -6 95 9 42 6 51 62 -165 109 -419 161 -577 207 -629 33 -36
101 -66 203 -90 126 -30 99 -34 -36 -6 -109 22 -171 47 -199 79 -11 11 -25 21
-33 21 -22 0 33 -93 89 -152 51 -53 184 -123 212 -112 9 3 16 1 16 -6 0 -6 10
-10 23 -8 13 1 31 -4 40 -13 13 -13 26 -15 67 -8 28 4 60 11 70 14 22 7 28
-10 8 -18 -7 -3 -4 -6 8 -6 11 -1 25 4 32 11 6 6 15 8 19 3 5 -4 2 -10 -4 -12
-7 -3 -13 -9 -13 -13 0 -5 14 -4 30 2 35 12 60 5 60 -17 0 -8 5 -15 10 -15 14
0 13 23 -2 38 -15 15 -4 27 14 16 7 -5 23 -7 36 -5 13 1 32 -5 43 -15 19 -17
19 -17 13 0 -6 14 -2 16 21 10 19 -5 26 -3 21 4 -3 5 13 1 36 -11 24 -11 50
-21 58 -22 8 -1 24 -6 35 -13 19 -11 18 -11 -7 -12 -36 0 -37 -27 -2 -36 19
-5 22 -9 13 -15 -11 -6 -11 -9 1 -13 114 -40 130 -48 130 -67 0 -25 -12 -24
-39 5 -12 13 -36 26 -52 30 -16 3 -46 22 -66 41 -25 24 -40 32 -47 25 -18 -18
-47 -11 -68 16 -11 14 -28 24 -37 22 -9 -2 -21 3 -28 12 -6 8 -15 11 -19 7 -5
-4 -2 -13 6 -18 11 -8 8 -9 -12 -5 -15 3 -30 2 -33 -4 -3 -6 -24 -9 -45 -8
-22 2 -40 -1 -42 -7 -4 -11 30 -22 95 -30 30 -4 45 -10 41 -17 -4 -6 -1 -9 7
-6 8 3 30 -3 49 -14 53 -28 90 -22 58 10 -9 9 -9 12 -1 12 7 0 15 -4 18 -10 3
-5 18 -10 33 -10 31 0 60 -16 49 -26 -8 -8 51 -54 71 -54 7 0 10 -4 7 -10 -3
-5 1 -10 9 -10 9 0 18 -13 22 -35 3 -19 10 -35 15 -35 5 0 9 -6 9 -13 0 -21
42 -40 100 -44 30 -3 64 -11 76 -18 14 -9 25 -10 38 -3 24 14 28 7 30 -55 l1
-54 -31 18 c-23 13 -35 14 -43 6 -16 -16 -14 -27 5 -27 13 0 15 -7 10 -35 -6
-31 -4 -35 14 -35 11 0 20 -4 20 -10 0 -5 -5 -10 -11 -10 -7 0 -17 -7 -23 -16
-13 -18 -46 -9 -46 12 0 8 -5 14 -11 14 -7 0 -9 -8 -4 -23 4 -12 9 -37 12 -55
5 -28 3 -33 -13 -30 -12 2 -20 -4 -22 -17 -5 -23 -42 -73 -42 -57 0 6 -7 9
-16 5 -8 -3 -13 -12 -10 -20 4 -11 1 -13 -14 -8 -17 5 -19 2 -16 -23 2 -17 -2
-29 -8 -29 -47 1 -58 -3 -46 -18 10 -12 7 -19 -17 -39 -15 -14 -37 -26 -47
-26 -11 0 -16 -3 -13 -7 4 -3 -1 -11 -10 -18 -19 -14 -9 -35 17 -35 10 0 20
-7 24 -15 4 -13 2 -13 -14 -5 -10 5 -26 10 -36 10 -14 0 -14 -3 -4 -15 7 -9
15 -13 18 -10 7 6 32 -15 32 -27 0 -11 -38 -6 -67 10 -27 15 -34 15 -31 0 2
-8 -6 -12 -19 -10 -36 5 -29 -27 7 -34 35 -8 40 -23 8 -25 -19 -1 -20 -2 -4
-6 10 -3 23 0 29 6 15 15 27 14 27 -3 0 -8 -14 -17 -31 -21 -28 -6 -29 -8 -15
-24 14 -15 12 -16 -26 -13 -28 3 -36 7 -27 13 10 6 5 9 -16 9 -23 0 -27 -3
-15 -10 13 -9 13 -11 1 -19 -12 -8 -12 -12 -2 -25 8 -10 9 -16 3 -16 -6 0 -14
4 -17 10 -12 19 -30 10 -53 -26 l-24 -36 -14 27 c-8 15 -14 36 -14 46 0 11 -7
19 -15 19 -8 0 -15 -7 -15 -16 0 -10 -6 -14 -14 -11 -8 3 -16 2 -18 -2 -2 -5
-29 -10 -60 -13 -45 -4 -55 -2 -47 8 6 8 6 14 0 18 -5 3 -11 0 -14 -6 -3 -10
-9 -8 -24 4 -11 10 -30 18 -43 18 -21 0 -22 -1 -7 -18 11 -12 13 -22 7 -32 -9
-13 -10 -13 -11 0 0 9 -4 7 -11 -7 -13 -26 -55 -31 -64 -8 -4 10 -14 13 -30 9
-18 -5 -24 -2 -24 10 0 9 -12 18 -27 22 -16 4 -34 11 -40 17 -9 6 -14 4 -18
-7 -3 -9 -7 -23 -10 -31 -2 -8 -16 -20 -30 -25 -14 -5 -25 -14 -25 -20 0 -14
13 -13 29 3 10 10 12 8 9 -8 -3 -21 -48 -35 -48 -16 0 18 -24 12 -43 -10 -11
-12 -25 -18 -33 -15 -9 3 -20 6 -25 6 -18 0 -8 18 14 25 20 7 21 7 3 12 -11 3
-25 -2 -31 -11 -9 -12 -14 -13 -23 -4 -17 17 -15 33 2 19 10 -9 15 -8 20 4 9
23 -50 19 -77 -6 -12 -11 -30 -18 -39 -15 -10 2 -18 0 -18 -5 0 -5 -7 -9 -15
-9 -8 0 -15 -4 -15 -10 0 -5 -4 -10 -10 -10 -5 0 -10 6 -10 14 0 8 -17 20 -37
27 -25 9 -32 14 -20 17 9 2 17 8 17 13 0 5 9 9 21 9 16 0 19 4 14 20 -4 11 -2
20 4 20 6 0 11 4 11 10 0 5 -13 7 -29 4 l-30 -6 4 66 c3 62 -5 90 -20 66 -4
-6 -1 -18 7 -27 12 -15 10 -16 -20 -10 -35 7 -114 -15 -120 -33 -8 -23 -19 -8
-16 23 2 17 0 27 -4 22 -12 -16 -59 -38 -70 -31 -5 3 -7 18 -5 33 4 26 3 26
-10 11 -8 -10 -20 -18 -28 -18 -12 0 -12 -2 0 -9 14 -9 3 -10 -177 -14 -56 -1
-102 -5 -102 -9 0 -11 -34 -10 -46 2 -5 5 -49 13 -96 16 -72 6 -92 4 -112 -10
-32 -21 -36 -20 -36 4 0 18 -3 19 -21 9 -17 -8 -23 -8 -29 1 -4 7 -13 9 -19 6
-6 -4 -17 -4 -23 0 -22 14 -98 16 -98 3 0 -8 -4 -9 -13 0 -9 7 -24 8 -45 2
-35 -10 -73 -4 -84 14 -4 7 -19 10 -35 8 l-28 -5 23 17 c21 16 33 53 12 40 -6
-4 -34 -9 -62 -11 -29 -3 -59 -11 -68 -19 -22 -20 -100 -32 -100 -15 0 9 -5 8
-18 -3 -10 -10 -29 -17 -43 -17 -27 -1 -52 -17 -61 -42 -5 -11 -18 -16 -43
-16 -31 0 -35 3 -30 19 5 13 2 19 -10 19 -13 0 -15 7 -9 36 4 25 3 39 -6 44
-7 4 -9 13 -5 20 6 10 11 9 22 -5 12 -18 13 -17 13 8 0 22 -5 27 -27 28 -16 1
-34 1 -40 0 -7 -1 -13 3 -13 9 0 5 -11 10 -25 10 -29 0 -32 -8 -7 -26 14 -11
14 -13 2 -14 -8 0 -21 9 -28 21 -15 23 -26 21 -109 -18 -36 -16 -50 -28 -47
-38 4 -9 -10 -31 -33 -53 -29 -29 -44 -37 -58 -32 -11 4 -26 2 -34 -4 -19 -15
-101 -15 -101 0 0 11 -42 44 -56 44 -3 0 -4 -6 -1 -14 3 -8 -2 -16 -14 -19
-16 -4 -18 -3 -9 8 8 10 8 15 -1 21 -12 7 -19 -1 -45 -43 -17 -27 -26 -11 -13
26 6 17 8 39 5 47 -6 15 -8 15 -24 2 -9 -8 -25 -18 -34 -21 -12 -4 -18 -17
-18 -37 0 -36 -16 -32 -31 8 l-10 25 -32 -31 c-18 -18 -43 -32 -54 -32 -25 0
-32 -9 -39 -47 -3 -15 -7 -30 -10 -35 -10 -15 -24 -8 -24 12 0 11 5 20 10 20
6 0 10 5 10 11 0 6 -9 8 -22 3 -21 -6 -21 -6 -5 10 9 10 17 23 16 29 0 9 -2 8
-6 0 -2 -7 -11 -13 -19 -13 -8 0 -14 -4 -14 -9 0 -12 -39 -25 -48 -17 -3 4 4
14 17 22 12 9 20 22 17 30 -3 8 -2 14 2 14 4 0 12 15 18 34 10 33 10 34 -13
25 -14 -5 -33 -14 -44 -19 -15 -9 -21 -7 -25 5 -7 18 -25 20 -42 3 -7 -7 -27
-11 -45 -10 -37 3 -97 -30 -97 -53 0 -8 5 -15 10 -15 18 0 11 -18 -10 -25 -31
-10 -26 -95 6 -95 8 0 14 -5 14 -11 0 -8 13 -10 38 -7 24 4 45 0 58 -9 32 -23
124 -47 137 -34 7 7 14 6 22 -6 9 -12 31 -16 96 -16 94 -1 134 8 163 35 11 10
29 18 41 18 25 0 55 29 55 53 0 9 4 17 9 17 5 0 7 -17 4 -38 -6 -44 16 -73 40
-53 10 7 17 7 24 0 7 -7 17 -7 29 -1 33 18 122 42 136 37 7 -3 27 -6 43 -8 36
-4 81 -22 89 -36 4 -6 24 -18 44 -28 20 -9 51 -27 68 -40 17 -13 36 -23 42
-23 6 0 12 -3 14 -7 2 -5 37 -30 78 -58 41 -27 77 -52 80 -55 10 -10 40 -11
40 0 0 5 -7 10 -15 10 -9 0 -12 6 -9 15 4 8 10 13 14 10 4 -3 11 6 14 20 8 32
22 32 30 0 4 -14 13 -25 21 -25 29 0 85 -34 85 -52 0 -9 10 -22 21 -29 20 -10
21 -9 15 16 -6 22 -4 26 8 22 10 -4 16 -1 16 7 0 8 -6 17 -12 19 -7 3 -2 6 11
6 21 1 23 5 17 31 -3 17 -2 30 2 30 14 0 32 -24 32 -42 0 -10 5 -18 10 -18 6
0 10 10 10 23 0 12 4 18 8 12 15 -21 60 -16 77 7 l16 23 -7 -29 c-5 -21 -4
-27 5 -22 6 4 11 2 11 -3 0 -6 8 -11 17 -11 9 0 25 -7 35 -17 17 -15 18 -15
18 10 0 14 -4 29 -10 32 -19 12 -11 26 9 15 11 -5 27 -7 35 -4 9 3 16 2 16 -4
0 -12 55 -35 89 -37 14 0 26 -6 29 -13 3 -9 9 -8 25 3 32 22 39 18 32 -16 -5
-23 -4 -29 4 -24 8 5 10 -1 5 -19 -5 -23 -3 -26 21 -26 41 0 73 -41 43 -54 -7
-3 1 -2 17 1 25 5 28 4 18 -8 -14 -17 5 -49 30 -49 9 0 19 -4 22 -10 3 -6 -4
-10 -17 -10 l-22 0 24 -17 c14 -9 27 -18 30 -20 2 -2 -2 -9 -10 -14 -11 -8 -8
-8 10 -3 14 4 30 9 36 11 6 2 14 -6 17 -18 4 -14 11 -20 20 -16 10 4 16 -3 20
-19 3 -20 1 -24 -14 -22 -17 3 -19 1 -19 -20 0 -5 14 -7 30 -4 22 3 30 0 30
-11 0 -8 7 -20 15 -27 25 -21 19 -43 -11 -37 -18 3 -29 -1 -37 -14 -6 -10 -20
-17 -32 -15 -11 2 -15 1 -8 -1 7 -2 15 -13 18 -23 3 -10 19 -23 35 -29 19 -6
30 -17 30 -28 0 -11 13 -24 33 -32 30 -13 30 -14 9 -18 l-23 -5 22 -19 22 -19
-23 0 c-23 0 -23 0 -4 -14 10 -8 21 -10 22 -5 2 5 13 9 25 9 11 0 17 -3 14 -6
-3 -4 -2 -16 4 -27 8 -14 8 -18 0 -13 -17 11 -13 -10 4 -24 8 -7 15 -19 15
-26 0 -8 6 -14 13 -14 23 0 48 -35 41 -55 -5 -13 -4 -16 4 -11 7 4 12 2 12 -3
0 -29 26 -1 94 103 152 229 193 334 216 546 6 58 14 116 17 130 6 25 6 25 12
-4 3 -16 12 -31 20 -34 9 -3 11 1 7 16 -7 20 21 92 36 92 4 0 6 19 4 42 -4 50
-32 75 -96 84 -25 3 -58 12 -75 19 -16 7 -42 16 -57 19 -17 4 -28 13 -28 22 0
13 3 14 15 4 8 -7 25 -10 37 -7 13 3 32 -1 42 -9 11 -8 32 -14 46 -14 45 0
107 -37 166 -99 21 -23 26 -24 116 -18 127 9 158 -1 207 -66 45 -61 82 -95
133 -121 97 -51 168 -123 168 -169 0 -20 -51 -131 -87 -189 -12 -20 -20 -44
-17 -53 4 -9 27 -30 53 -47 25 -17 66 -48 91 -68 110 -90 290 -199 505 -305
259 -128 315 -167 435 -310 41 -49 90 -103 109 -120 19 -16 59 -57 90 -90 63
-67 180 -184 328 -327 125 -121 237 -283 339 -491 128 -261 208 -506 274 -839
l11 -58 390 0 389 0 0 5120 0 5120 -5120 0 -5120 0 0 -5120z m3340 3779 c0 -6
-4 -7 -10 -4 -5 3 -10 11 -10 16 0 6 5 7 10 4 6 -3 10 -11 10 -16z m-670
-1009 c0 -5 -2 -10 -4 -10 -3 0 -8 5 -11 10 -3 6 -1 10 4 10 6 0 11 -4 11 -10z
m3020 -217 c0 10 5 14 14 11 8 -3 12 -12 10 -19 -3 -7 11 -30 32 -50 30 -31
33 -36 14 -30 -31 10 -16 -13 17 -26 27 -10 26 -35 -1 -33 -19 2 -19 2 -4 -31
13 -30 28 -34 21 -5 -8 30 4 24 23 -11 8 -17 14 -40 11 -50 -3 -11 -2 -17 3
-14 4 3 10 -2 14 -10 3 -8 15 -14 27 -12 12 1 26 -6 33 -18 6 -10 17 -25 24
-33 6 -7 12 -19 12 -27 0 -7 14 -15 30 -17 34 -5 37 4 16 45 -16 29 -11 34 14
14 8 -7 16 -32 18 -57 1 -25 9 -50 17 -56 8 -6 15 -16 15 -23 0 -6 6 -11 13
-11 8 0 7 -4 -3 -10 -13 -8 -13 -10 2 -10 9 0 19 6 21 13 3 6 6 2 6 -11 1 -13
-4 -22 -11 -21 -30 4 -37 -2 -34 -28 2 -16 6 -27 10 -25 3 1 13 2 21 2 9 0 12
6 9 15 -8 19 19 20 35 1 16 -19 47 -9 66 20 19 29 11 47 -16 39 -14 -5 -19 -2
-19 12 0 12 3 14 8 6 5 -8 13 -9 22 -3 12 7 12 12 2 22 -6 6 -12 8 -12 2 0
-14 -47 -16 -71 -4 -20 11 -27 40 -9 40 10 0 9 4 -11 55 l-12 30 -7 -25 -6
-25 -18 33 c-17 33 -17 34 2 28 13 -4 22 -1 26 9 3 9 10 13 16 10 5 -3 10 1
10 9 0 9 -6 15 -12 14 -12 -3 -13 19 -2 51 4 11 7 12 16 3 17 -17 38 -15 38 3
0 8 7 15 16 15 9 0 14 6 11 13 -3 8 1 14 9 14 18 0 18 -42 1 -59 -12 -10 -9
-18 14 -43 16 -16 29 -33 29 -37 0 -17 18 -6 29 18 10 23 10 25 -9 19 -26 -8
-26 10 1 28 13 9 16 17 10 22 -6 3 -11 0 -12 -7 0 -7 -4 -4 -9 7 -12 29 -12
88 0 80 6 -4 8 -11 5 -16 -9 -13 24 -24 37 -11 12 12 38 4 55 -17 9 -13 13
-10 26 19 l16 35 -6 -40 c-3 -22 -8 -44 -11 -50 -4 -5 -7 -17 -7 -25 0 -8 -5
-14 -11 -13 -5 1 -15 -12 -22 -29 -9 -26 -9 -29 5 -24 9 4 24 -1 34 -10 23
-21 24 -34 4 -34 -8 0 -15 -4 -15 -9 0 -5 -3 -23 -6 -40 -5 -25 -4 -30 8 -26
11 4 17 -2 20 -20 4 -21 2 -25 -12 -20 -10 3 -21 1 -25 -4 -3 -7 0 -8 10 -5 9
4 15 3 14 -2 -2 -5 5 -27 15 -49 13 -30 15 -44 7 -57 -12 -19 -5 -48 11 -48 5
0 6 -5 3 -10 -5 -7 -11 -8 -19 -1 -14 12 -41 -2 -32 -17 3 -5 -1 -16 -10 -23
-14 -11 -18 -11 -29 4 -7 9 -17 17 -24 17 -6 0 -11 6 -11 14 0 8 -7 16 -15 20
-9 3 -15 19 -15 41 0 22 -4 34 -10 30 -5 -3 -10 -17 -10 -31 0 -26 -27 -33
-47 -13 -9 9 -14 5 -19 -15 -3 -14 -12 -26 -19 -26 -8 0 -17 -15 -20 -32 -4
-18 -16 -45 -26 -60 -11 -14 -19 -38 -19 -52 0 -14 -6 -26 -12 -26 -10 0 -9
-3 1 -9 9 -6 11 -18 6 -40 -7 -33 -5 -48 8 -43 4 1 7 -14 5 -34 -1 -19 2 -38
8 -42 9 -6 12 -22 15 -74 0 -10 4 -20 10 -23 15 -10 10 -28 -6 -21 -19 7 -20
-27 -1 -43 8 -6 60 -21 117 -32 57 -11 130 -26 162 -35 72 -18 291 -36 295
-23 2 5 8 9 13 9 6 0 7 -4 4 -10 -3 -5 3 -10 14 -10 12 0 21 2 21 4 0 2 3 11
6 19 4 12 0 14 -18 11 -13 -2 -17 -2 -10 2 15 7 61 94 65 125 3 17 11 22 35
23 34 1 40 -11 22 -44 -7 -13 -7 -21 2 -26 6 -4 8 -3 5 3 -3 5 5 26 19 46 13
20 24 40 23 44 -1 4 2 18 6 30 8 24 55 39 55 17 0 -8 -4 -14 -10 -14 -5 0 -10
-5 -10 -11 0 -7 -12 -23 -26 -36 -14 -13 -23 -27 -19 -31 4 -4 31 19 61 51 32
34 54 51 54 42 0 -9 -12 -28 -27 -43 -42 -40 -73 -84 -73 -101 1 -13 2 -13 11
2 5 9 16 17 24 17 7 0 16 6 18 13 3 6 6 3 6 -8 0 -11 -8 -31 -19 -45 -39 -50
-14 -55 48 -9 26 19 50 29 61 26 11 -2 31 3 47 13 21 14 33 16 53 9 14 -6 36
-8 48 -4 13 3 23 1 23 -5 0 -5 12 -10 26 -10 24 0 25 -2 13 -17 -12 -15 -12
-16 6 -9 11 5 33 12 48 17 38 11 32 -9 -11 -36 -35 -22 -42 -40 -13 -30 12 3
23 0 28 -9 4 -8 19 -16 32 -18 41 -5 33 -22 -23 -46 -62 -27 -97 -58 -75 -67
8 -2 81 -19 163 -35 82 -17 165 -38 184 -46 l35 -14 -26 -26 -26 -26 -98 26
c-196 51 -342 70 -628 81 -233 9 -516 53 -745 116 -227 62 -668 144 -685 127
-4 -3 -30 -539 -41 -828 -3 -80 -7 -155 -10 -166 -2 -12 -23 -44 -47 -70 -24
-27 -85 -107 -136 -179 -102 -142 -102 -143 -16 -144 37 -1 45 4 103 69 35 39
67 70 72 70 5 0 10 -37 12 -82 l3 -83 130 -17 c72 -9 197 -20 279 -24 106 -5
143 -10 130 -17 -23 -13 -123 -5 -494 38 -168 20 -341 40 -385 45 -44 5 -138
16 -210 25 -233 28 -447 45 -590 47 l-140 2 115 4 c63 2 186 -2 273 -8 88 -6
160 -10 162 -8 4 4 44 367 75 678 45 450 49 474 102 598 26 63 48 116 48 118
0 2 -34 4 -76 4 -51 0 -73 3 -68 11 3 6 17 8 30 5 41 -11 154 5 154 20 0 16
16 19 24 5 4 -5 0 -12 -6 -14 -7 -3 30 -6 83 -6 53 -1 99 2 103 6 4 4 39 6 78
4 54 -2 69 0 63 10 -6 9 -2 11 13 7 19 -5 20 -3 11 13 -5 10 -16 19 -24 19 -8
0 -15 4 -15 9 0 5 -10 7 -22 5 -13 -2 -17 -1 -9 2 11 5 11 8 0 15 -7 4 -10 11
-6 15 4 4 13 2 19 -4 7 -7 19 -12 27 -12 11 0 10 4 -4 20 -12 13 -25 18 -40
14 -13 -3 -27 1 -36 12 -12 15 -12 16 6 11 11 -3 33 -8 48 -11 l28 -7 -15 30
c-9 16 -25 32 -36 36 -11 3 -20 13 -20 21 0 20 7 18 38 -11 15 -14 28 -21 30
-15 5 13 32 13 32 1 0 -5 10 -13 21 -16 16 -5 18 -9 9 -15 -7 -4 -9 -13 -5
-20 6 -10 10 -9 17 4 5 9 18 16 28 16 23 0 35 16 18 26 -6 4 -14 2 -16 -4 -2
-7 -8 -12 -13 -12 -6 0 -8 4 -5 8 9 15 -41 51 -63 45 -16 -4 -21 -1 -21 16 0
11 -4 21 -9 21 -17 0 -61 46 -61 64 0 9 -5 16 -11 16 -18 0 -98 71 -94 83 5
14 -2 26 -27 46 -14 10 -21 11 -32 2 -12 -10 -13 -8 -9 10 4 14 2 20 -4 16 -6
-4 -21 2 -33 13 -13 11 -29 20 -36 20 -7 0 -16 5 -20 12 -5 8 3 9 29 5 20 -3
39 -1 42 4 4 5 -4 9 -16 9 -16 0 -20 5 -16 20 6 24 -1 25 -25 3 -16 -14 -23
-15 -38 -5 -24 15 -43 16 -35 2 3 -5 0 -10 -7 -10 -18 1 -48 25 -48 39 0 6 -4
11 -10 11 -5 0 -10 5 -10 11 0 6 9 9 20 6 11 -3 18 -1 14 4 -3 5 -11 9 -17 9
-7 0 -28 13 -47 30 -19 16 -41 29 -47 30 -7 0 -13 5 -13 10 0 13 13 13 28 -2
8 -8 15 -8 24 0 11 8 18 4 33 -18 19 -28 70 -58 81 -48 3 3 -6 8 -20 12 -17 4
-28 15 -32 34 -4 15 -13 32 -20 38 -17 13 -8 44 11 44 19 0 28 -17 13 -26 -8
-5 -4 -10 10 -15 12 -5 22 -17 22 -26 0 -28 38 -54 83 -60 34 -4 39 -2 33 13
-5 12 -2 15 11 9 45 -17 63 -16 63 5 0 21 0 21 28 2 15 -11 36 -22 47 -26 11
-4 28 -18 38 -31 15 -22 16 -25 2 -25 -8 0 -15 4 -15 8 0 5 -11 14 -25 20 -35
16 -32 -3 5 -30 17 -12 30 -28 30 -35 0 -8 13 -22 30 -31 35 -20 38 -32 10
-32 -11 0 -20 4 -20 9 0 5 -17 12 -37 16 -21 3 -48 13 -61 21 -13 9 -30 13
-37 10 -22 -8 -5 -47 26 -58 16 -5 29 -17 30 -26 1 -10 4 -6 9 8 6 22 8 23 15
8 4 -10 16 -18 26 -18 12 0 24 -11 32 -27 14 -32 36 -52 57 -52 13 0 13 1 -1
12 -19 15 -31 45 -20 51 4 3 29 -13 55 -34 27 -22 54 -40 62 -40 20 0 17 -13
-6 -28 -24 -15 -26 -28 -4 -36 12 -5 15 -2 10 10 -6 15 -4 15 20 -1 14 -9 34
-15 44 -12 23 6 60 -27 60 -54 0 -12 9 -32 20 -46 12 -15 18 -34 15 -44 -4
-11 2 -26 15 -39 16 -16 19 -25 10 -35 -8 -10 -4 -15 20 -23 16 -6 30 -18 30
-26 0 -17 17 -21 37 -8 9 6 5 17 -17 40 -23 25 -25 32 -12 32 20 0 47 -16 47
-28 0 -8 54 -62 63 -62 2 0 -1 7 -8 15 -19 23 -3 31 20 10 11 -10 23 -15 26
-12 4 3 15 2 25 -4 14 -7 19 -6 19 4 0 8 -3 17 -7 21 -4 4 -8 13 -8 19 -1 7
-7 26 -14 42 -7 17 -17 39 -21 50 -5 11 -11 27 -14 35 -3 8 -15 30 -27 49 -11
19 -27 54 -35 79 -9 24 -20 50 -25 56 -46 55 -49 60 -98 165 -9 18 -22 36 -29
38 -7 3 -26 32 -42 64 -16 31 -34 61 -40 64 -8 5 -8 11 0 19 13 16 -39 91 -69
101 -27 8 -72 96 -53 103 9 3 4 11 -15 23 -19 13 -23 19 -11 19 9 0 20 -4 23
-10 14 -22 26 -9 20 21 l-7 31 31 -23 c17 -13 38 -33 46 -46 9 -13 22 -23 31
-23 12 0 10 7 -9 33 -33 44 -40 67 -22 67 8 0 15 -7 15 -15 0 -17 30 -55 43
-55 6 0 5 5 0 13 -5 6 -10 22 -11 35 -1 19 2 21 14 12 8 -7 14 -19 14 -26 0
-8 5 -14 10 -14 6 0 10 -7 10 -15 0 -8 6 -15 13 -15 7 0 18 -13 24 -30 7 -19
18 -30 31 -30 42 0 119 -110 127 -183 3 -20 22 -70 43 -111 45 -84 71 -189 55
-215 -6 -10 -7 -24 -3 -32 5 -8 7 -30 6 -49 -4 -59 28 -143 47 -123 7 6 38
-62 42 -92 4 -29 36 -105 43 -103 23 2 32 -5 32 -26 0 -17 7 -25 24 -28 48 -9
61 26 40 105 -14 52 -12 235 2 259 14 23 13 78 -2 78 -17 0 -17 1 -4 34 7 19
6 25 -3 23 -7 -1 -11 4 -9 12 1 7 -1 18 -6 25 -5 6 -12 33 -16 60 -3 28 -15
59 -25 70 -20 23 -40 75 -43 118 -2 19 -6 24 -14 17 -8 -7 -15 0 -23 22 -6 18
-14 29 -18 26 -12 -12 -34 45 -23 58 13 16 3 60 -16 76 -8 6 -14 17 -14 25 0
7 -13 32 -29 56 -15 24 -28 51 -28 62 0 18 1 18 14 0 11 -16 13 -16 13 -1z
m317 -95 c-3 -8 -6 -5 -6 6 -1 11 2 17 5 13 3 -3 4 -12 1 -19z m52 -84 c14
-33 3 -54 -16 -29 -12 17 -13 17 -13 2 0 -9 -4 -17 -10 -17 -13 0 -13 37 1 45
6 4 8 13 5 21 -9 24 21 4 33 -22z m913 -6 c24 -19 27 -41 10 -60 -14 -16 -14
-18 0 -18 9 0 18 7 22 15 12 31 24 14 15 -22 -4 -21 -6 -39 -3 -42 2 -3 18 5
34 18 17 12 34 20 39 17 14 -9 -23 -74 -45 -80 -12 -3 -31 -22 -43 -41 -24
-42 -19 -44 21 -10 34 29 45 27 29 -3 -12 -23 7 -71 26 -65 17 6 26 -16 13
-32 -8 -10 -8 -19 -1 -33 8 -16 4 -27 -26 -62 -31 -36 -40 -41 -65 -36 -22 4
-35 0 -55 -18 -21 -20 -29 -22 -44 -13 -11 7 -19 19 -19 28 0 9 -9 19 -21 22
-17 5 -20 11 -14 36 6 27 4 29 -16 24 -15 -4 -20 -3 -15 5 12 20 -19 14 -48
-9 -27 -22 -35 -20 -13 3 56 62 61 69 44 63 -15 -6 -16 -1 -12 40 2 27 8 52
14 58 5 5 7 16 4 23 -3 8 3 26 13 42 10 15 17 32 16 39 -1 6 2 14 8 18 5 3 10
19 10 35 0 15 7 30 15 34 8 3 15 1 15 -3 0 -5 -6 -12 -12 -14 -8 -3 -6 -6 5
-6 9 -1 17 3 17 7 0 13 40 52 53 52 7 0 20 -6 29 -12z m-346 -18 c9 0 13 4 10
8 -2 4 9 9 26 10 l30 2 -26 -31 c-15 -17 -26 -43 -26 -60 0 -23 -4 -29 -22
-29 -20 -1 -21 -2 -6 -10 10 -7 14 -17 10 -32 -4 -16 -2 -19 8 -13 10 6 11 2
6 -19 -5 -20 -3 -26 10 -26 11 0 14 -5 10 -16 -3 -9 -6 -20 -6 -25 0 -5 -15
-24 -33 -42 -39 -38 -67 -99 -49 -105 7 -2 12 -12 12 -23 0 -21 20 -25 37 -8
12 12 33 4 33 -12 0 -5 -8 -12 -17 -16 -10 -3 -27 -13 -37 -22 -18 -15 -19
-15 -13 2 7 19 -3 23 -20 6 -8 -8 -17 -8 -32 1 -17 9 -25 8 -37 -4 -8 -9 -13
-20 -10 -25 8 -12 -18 -21 -43 -14 -26 7 -26 9 0 63 18 38 19 45 6 54 -9 8
-13 22 -9 44 3 24 1 32 -11 32 -19 0 -33 20 -20 29 13 9 63 97 63 112 0 7 7
21 17 31 9 11 11 18 5 18 -7 0 -12 11 -12 25 0 14 5 25 11 25 6 0 9 11 7 23
-1 13 6 32 16 43 19 19 20 19 14 -3 -9 -34 4 -35 42 -1 19 16 36 25 38 19 2
-6 10 -11 18 -11z m-1901 -50 c3 -5 1 -10 -4 -10 -6 0 -11 5 -11 10 0 6 2 10
4 10 3 0 8 -4 11 -10z m105 -39 c0 -6 -9 -9 -20 -8 -11 1 -20 5 -20 9 0 4 9 8
20 8 11 0 20 -4 20 -9z m113 -17 c33 -29 33 -52 0 -29 -24 17 -49 55 -36 55 4
0 21 -12 36 -26z m-43 -49 c0 -5 -5 -3 -10 5 -5 8 -10 20 -10 25 0 6 5 3 10
-5 5 -8 10 -19 10 -25z m-225 -15 c3 -5 2 -10 -4 -10 -5 0 -13 5 -16 10 -3 6
-2 10 4 10 5 0 13 -4 16 -10z m1399 -49 c5 -28 4 -31 -8 -22 -15 12 -27 57
-18 66 9 9 19 -8 26 -44z m-1683 -93 c9 -17 8 -18 -10 -6 -25 15 -36 39 -15
31 8 -3 19 -14 25 -25z m74 -18 c3 -5 1 -10 -4 -10 -6 0 -11 5 -11 10 0 6 2
10 4 10 3 0 8 -4 11 -10z m-130 -17 c17 -3 35 -9 40 -13 26 -17 106 -41 123
-36 12 4 25 -1 37 -14 10 -11 24 -20 32 -20 7 0 13 -5 13 -11 0 -11 -38 -3
-54 12 -13 12 -56 12 -56 0 0 -5 29 -19 65 -31 36 -12 65 -23 65 -26 0 -4 -73
3 -127 11 -34 6 -136 62 -166 92 -10 10 -23 27 -29 37 -9 16 -8 18 8 12 11 -4
33 -10 49 -13z m544 -8 c3 -17 2 -17 -13 -3 -19 20 -21 31 -3 26 6 -3 14 -13
16 -23z m-409 -5 c8 -5 12 -11 9 -14 -3 -3 -14 1 -25 9 -21 16 -8 20 16 5z
m470 -5 c17 -20 -7 -20 -34 0 -19 15 -19 15 1 15 11 0 26 -7 33 -15z m-660
-55 c6 -11 16 -20 22 -20 7 0 7 5 -1 14 -10 12 -8 13 8 9 12 -3 21 -10 21 -15
0 -6 7 -8 15 -4 11 4 15 -1 15 -19 0 -19 5 -25 23 -25 13 0 28 -5 33 -10 6 -6
20 -12 31 -14 11 -3 42 -21 68 -40 45 -35 75 -46 75 -27 0 5 -11 12 -25 15
-14 4 -24 10 -21 15 9 13 64 0 82 -20 9 -10 30 -19 46 -19 18 0 28 -5 28 -15
0 -8 4 -15 10 -15 5 0 7 -7 3 -15 -3 -11 8 -28 32 -49 33 -30 35 -35 19 -39
-12 -3 -6 -5 14 -6 17 0 32 -5 32 -10 0 -18 -65 -18 -114 0 -61 23 -62 23 -47
5 6 -7 25 -16 41 -20 18 -3 30 -12 30 -21 0 -13 -3 -13 -20 -3 -26 17 -38 2
-14 -18 13 -10 14 -14 4 -11 -8 2 -19 12 -24 23 -10 23 -38 36 -106 52 l-45
11 57 -4 c54 -3 57 -3 45 16 -6 10 -22 19 -35 19 -13 0 -29 6 -37 13 -11 12
-4 13 46 11 79 -3 85 12 8 21 -57 7 -61 9 -56 31 4 21 0 24 -37 28 -23 3 -48
5 -56 6 -17 0 -73 7 -79 9 -2 0 3 9 10 18 12 15 12 16 -4 10 -28 -10 -104 43
-92 64 4 6 -1 20 -12 32 -10 12 -25 31 -33 41 -14 18 -14 19 7 7 13 -6 27 -20
33 -31z m2140 10 c0 -5 -5 -10 -11 -10 -5 0 -7 5 -4 10 3 6 8 10 11 10 2 0 4
-4 4 -10z m1102 -15 c6 -13 18 -26 27 -27 13 -3 11 -6 -6 -16 -21 -12 -23 -11
-23 10 -1 21 -3 20 -30 -12 -29 -34 -31 -34 -45 -16 -14 19 -15 19 -36 0 -21
-19 -22 -19 -15 2 4 13 1 26 -9 34 -8 7 -12 16 -9 21 8 13 24 11 22 -2 -5 -19
19 -21 36 -3 13 12 20 14 29 5 6 -6 18 -11 27 -11 12 0 13 2 1 9 -7 5 -10 14
-7 20 11 18 26 13 38 -14z m-1115 -27 c-3 -8 -6 -5 -6 6 -1 11 2 17 5 13 3 -3
4 -12 1 -19z m658 -14 c-11 -8 -20 -22 -20 -31 0 -9 -9 -21 -20 -27 -11 -6
-22 -13 -25 -16 -37 -37 -47 -40 -75 -26 l-28 14 52 24 c32 15 51 29 51 41 0
9 8 17 18 17 9 0 26 7 36 15 11 8 22 12 25 9 3 -3 -3 -12 -14 -20z m-85 8 c0
-10 -22 -32 -32 -32 -5 0 -3 9 4 20 13 20 28 27 28 12z m-580 -22 c0 -5 -5
-10 -11 -10 -5 0 -7 5 -4 10 3 6 8 10 11 10 2 0 4 -4 4 -10z m-57 -6 c7 -7 -2
-34 -12 -34 -4 0 -7 9 -8 20 -2 19 8 26 20 14z m-2453 -34 c14 -11 19 -20 12
-20 -7 0 -22 9 -34 20 -28 26 -11 26 22 0z m3540 9 c0 -6 -17 -27 -37 -47 -39
-39 -39 -21 0 28 23 30 37 37 37 19z m-3441 -10 c17 -6 31 -15 31 -20 0 -12
-1 -12 -44 6 -56 24 -46 35 13 14z m2315 -21 c3 -17 4 -34 1 -37 -9 -8 -25 21
-25 47 0 33 17 27 24 -10z m366 12 c0 -5 -2 -10 -4 -10 -3 0 -8 5 -11 10 -3 6
-1 10 4 10 6 0 11 -4 11 -10z m-2818 -12 c12 -7 28 -17 34 -23 7 -5 35 -23 63
-40 48 -29 71 -53 34 -37 -95 43 -135 65 -140 80 -4 9 -11 20 -17 24 -18 13 3
9 26 -4z m1256 -16 c2 -15 10 -22 26 -22 13 0 29 -6 35 -14 10 -11 7 -14 -16
-13 -31 2 -44 11 -61 44 -15 28 -15 36 1 31 6 -3 13 -14 15 -26z m2422 18 c-8
-5 -19 -10 -25 -10 -5 0 -3 5 5 10 8 5 20 10 25 10 6 0 3 -5 -5 -10z m-3553
-25 c1 -1 -13 -1 -32 -1 -37 0 -48 12 -17 18 9 3 24 0 32 -6 8 -6 16 -11 17
-11z m3050 -2 c-9 -9 -20 -13 -24 -9 -4 4 1 14 11 22 25 18 35 8 13 -13z m318
17 c-3 -5 -11 -10 -16 -10 -6 0 -7 5 -4 10 3 6 11 10 16 10 6 0 7 -4 4 -10z
m-3155 -11 c10 0 8 -3 -5 -9 -19 -8 -19 -9 3 -9 12 -1 22 -5 22 -11 0 -5 6
-10 14 -10 10 0 13 8 10 24 -4 24 -3 24 33 15 46 -12 96 -31 103 -38 11 -12
50 -31 65 -31 8 0 15 -4 15 -9 0 -5 -8 -7 -19 -4 -10 2 -25 -2 -33 -10 -9 -9
-25 -13 -41 -10 -29 6 -37 23 -12 23 8 0 15 3 15 8 -1 11 -69 42 -93 41 -21 0
-21 -1 3 -11 24 -10 24 -10 5 -18 -28 -12 -103 -12 -109 -1 -4 5 0 12 6 14 9
4 3 15 -17 33 -29 27 -30 27 -5 21 14 -4 32 -7 40 -8z m2454 -23 c-9 -15 -19
-24 -22 -22 -2 3 3 17 12 32 10 14 20 23 23 21 2 -3 -3 -17 -13 -31z m-2534
-6 c0 -5 -2 -10 -4 -10 -3 0 -8 5 -11 10 -3 6 -1 10 4 10 6 0 11 -4 11 -10z
m360 -10 c18 -12 2 -12 -25 0 -13 6 -15 9 -5 9 8 0 22 -4 30 -9z m2865 -10
c-10 -11 -20 -18 -23 -15 -7 6 18 35 31 35 5 0 2 -9 -8 -20z m82 2 c-10 -10
-17 -24 -17 -30 0 -13 -39 -36 -47 -29 -3 3 7 16 21 28 14 12 26 29 26 36 0 7
7 13 17 13 15 0 15 -1 0 -18z m-3562 -2 c3 -5 1 -10 -4 -10 -6 0 -11 5 -11 10
0 6 2 10 4 10 3 0 8 -4 11 -10z m-65 -20 c0 -5 -7 -7 -15 -4 -8 4 -15 8 -15
10 0 2 7 4 15 4 8 0 15 -4 15 -10z m-55 -10 c3 -6 -4 -10 -17 -10 -18 0 -20 2
-8 10 19 12 18 12 25 0z m585 0 c0 -5 -4 -10 -10 -10 -5 0 -10 5 -10 10 0 6 5
10 10 10 6 0 10 -4 10 -10z m2630 0 c0 -5 -4 -10 -10 -10 -5 0 -10 5 -10 10 0
6 5 10 10 10 6 0 10 -4 10 -10z m-2993 -36 c-6 -7 -77 17 -77 26 0 4 18 1 40
-7 22 -9 39 -18 37 -19z m333 12 c0 -9 -8 -12 -26 -8 -19 3 -22 7 -12 13 20
13 38 11 38 -5z m170 -46 c0 -5 9 -12 20 -15 11 -4 18 -10 15 -15 -3 -5 -19
-4 -36 2 -22 7 -27 13 -18 19 9 5 5 11 -14 20 -15 7 -27 16 -27 21 0 5 14 2
30 -7 17 -9 30 -20 30 -25z m-206 21 c18 -7 18 -8 -5 -14 -37 -10 -111 -8
-104 3 3 5 12 7 20 3 8 -3 15 0 15 6 0 12 45 14 74 2z m2524 -14 c-16 -13 -28
-29 -28 -36 0 -11 5 -9 20 4 11 10 22 16 25 13 10 -9 -16 -73 -37 -93 -24 -20
-47 -72 -53 -113 -5 -31 -15 -41 -15 -14 0 12 -9 26 -20 32 -27 14 -25 34 5
64 28 28 32 46 10 46 -17 0 -20 16 -4 25 6 4 8 14 4 23 -3 9 -3 13 1 10 3 -4
15 2 26 12 19 17 76 50 88 49 3 0 -7 -10 -22 -22z m-2402 -7 c68 0 52 -16 -30
-29 -55 -9 -80 -9 -95 -1 -32 17 -25 23 20 17 33 -4 39 -3 35 10 -5 11 -2 13
10 9 8 -3 36 -6 60 -6z m2584 -8 c0 -4 -5 -13 -12 -20 -18 -18 -28 -15 -28 8
0 13 7 20 20 20 11 0 20 -4 20 -8z m495 -82 c-3 -5 -13 -10 -21 -10 -8 0 -14
-4 -14 -9 0 -5 -10 -7 -21 -4 -20 6 -20 7 7 19 36 15 57 17 49 4z m-2665 -10
c12 -8 11 -10 -7 -10 -12 0 -25 5 -28 10 -8 13 15 13 35 0z m3132 -12 c-7 -7
-12 -20 -12 -30 0 -10 -7 -18 -15 -18 -8 0 -15 4 -15 9 0 13 42 63 48 56 3 -3
0 -11 -6 -17z m-52 2 c0 -5 -4 -10 -10 -10 -5 0 -10 5 -10 10 0 6 5 10 10 10
6 0 10 -4 10 -10z m-22 -23 c21 -16 14 -26 -30 -38 -24 -6 -49 -16 -57 -22
-15 -12 -15 -12 6 40 5 12 3 14 -8 8 -8 -5 -7 0 4 12 18 21 58 21 85 0z m-468
-27 c-14 -11 -31 -20 -39 -20 -17 0 -11 7 26 30 36 22 45 14 13 -10z m-2793
-6 c-3 -3 -12 -4 -19 -1 -8 3 -5 6 6 6 11 1 17 -2 13 -5z m2053 -3 c0 -6 -4
-13 -10 -16 -5 -3 -10 1 -10 9 0 9 5 16 10 16 6 0 10 -4 10 -9z m1094 -46 c-4
-8 -13 -15 -21 -15 -13 0 -13 3 -3 15 7 8 16 15 21 15 5 0 6 -7 3 -15z m142
-460 l51 -33 7 -168 c3 -93 13 -342 21 -554 8 -212 18 -435 21 -496 l7 -112
-87 21 -86 21 0 91 c0 49 -4 223 -10 385 -5 162 -12 429 -16 594 l-7 298 24
-7 c13 -4 47 -22 75 -40z m-1361 -105 c18 -11 40 -31 49 -45 16 -24 22 -86 10
-98 -10 -10 -51 14 -64 38 -7 13 -23 28 -35 33 -20 9 -30 6 -65 -19 -52 -38
-70 -33 -70 20 0 35 5 43 37 66 46 30 94 32 138 5z m-2968 -16 c-3 -3 -12 -4
-19 -1 -8 3 -5 6 6 6 11 1 17 -2 13 -5z m-1167 -66 c0 -13 -23 -5 -28 10 -2 7
2 10 12 6 9 -3 16 -11 16 -16z m40 -39 c0 -14 -17 -10 -23 5 -4 10 -1 13 9 9
7 -3 14 -9 14 -14z m-87 -246 c19 -22 33 -73 19 -73 -17 0 -33 27 -25 45 4 13
3 16 -5 11 -7 -4 -12 -5 -12 -2 0 2 -3 11 -6 20 -8 21 9 20 29 -1z m-33 -163
c13 -8 13 -10 -2 -10 -9 0 -20 5 -23 10 -8 13 5 13 25 0z m35 -51 c12 -19 -5
-23 -22 -6 -16 16 -16 17 -1 17 9 0 20 -5 23 -11z m1612 -165 c-3 -3 -12 -4
-19 -1 -8 3 -5 6 6 6 11 1 17 -2 13 -5z m61 -11 c-10 -2 -26 -2 -35 0 -10 3
-2 5 17 5 19 0 27 -2 18 -5z m3251 -369 c9 -8 -55 -2 -74 6 -13 6 -5 7 25 3
25 -3 47 -7 49 -9z m54 -11 c-7 -2 -19 -2 -25 0 -7 3 -2 5 12 5 14 0 19 -2 13
-5z m175 -23 c45 -14 -5 -10 -83 5 l-70 14 63 -6 c35 -3 76 -9 90 -13z m111
-16 c10 -9 -55 -3 -69 6 -10 6 -2 7 25 3 22 -3 42 -7 44 -9z m44 -11 c-7 -2
-19 -2 -25 0 -7 3 -2 5 12 5 14 0 19 -2 13 -5z m-4353 -13 c13 -8 13 -10 -2
-10 -9 0 -20 5 -23 10 -8 13 5 13 25 0z m-1704 -44 c50 -30 90 -46 126 -51 83
-10 203 -42 247 -65 22 -11 46 -20 53 -20 7 0 50 -18 95 -41 90 -45 109 -65
233 -238 45 -64 92 -117 121 -138 27 -19 51 -44 55 -56 15 -45 3 -120 -30
-187 l-33 -66 19 -44 c15 -34 17 -49 9 -62 -8 -12 -8 -26 0 -45 13 -34 4 -73
-17 -73 -9 0 -36 14 -61 30 -57 39 -67 38 -59 -2 25 -122 15 -198 -25 -198
-22 0 -149 85 -149 100 0 9 135 133 151 138 5 2 9 9 9 16 0 7 20 27 45 45 43
31 57 51 35 51 -6 0 7 33 29 73 21 39 41 87 45 105 7 42 -17 95 -42 90 -16 -3
-62 36 -62 53 0 5 -8 9 -17 9 -14 0 -15 2 -5 9 10 6 10 10 -2 20 -12 10 -19 8
-35 -8 -12 -12 -26 -21 -33 -21 -6 0 -3 -9 7 -20 18 -20 18 -21 -3 -27 -12 -3
-22 -11 -22 -18 0 -7 -7 -16 -16 -19 -9 -4 -13 -2 -8 5 4 7 1 10 -7 7 -8 -3
-13 -14 -12 -24 1 -11 -13 -31 -35 -48 -31 -23 -33 -27 -12 -21 22 7 24 6 11
-9 -8 -9 -20 -15 -27 -12 -22 8 -24 -7 -3 -25 21 -18 21 -18 -24 -40 l-46 -23
-27 27 c-33 34 -41 29 -19 -13 17 -33 13 -52 -6 -33 -12 12 -45 0 -61 -22 -5
-6 -12 -4 -18 5 -5 8 -10 10 -10 4 0 -5 -10 -21 -22 -34 -13 -14 -22 -28 -21
-32 2 -5 -5 -8 -15 -8 -10 0 -23 -5 -30 -12 -8 -8 -15 -8 -27 2 -12 10 -15 10
-15 -4 0 -8 -13 -22 -30 -31 -23 -12 -30 -12 -30 -3 0 9 -3 10 -8 2 -10 -16
-79 -27 -87 -14 -3 6 -11 7 -17 4 -22 -14 -78 -11 -78 3 0 8 -4 11 -10 8 -5
-3 -10 0 -10 8 0 8 -7 17 -15 21 -13 4 -13 2 -5 -14 11 -20 -3 -39 -15 -20 -3
5 -15 10 -26 10 -18 0 -23 10 -20 38 1 7 -5 19 -14 28 -8 8 -15 11 -15 5 0
-12 -33 -15 -43 -4 -12 12 -61 12 -68 1 -4 -7 -36 -12 -72 -12 -56 -1 -69 3
-91 23 -14 13 -28 38 -32 55 -7 34 -29 55 -56 56 -12 0 -17 7 -15 22 1 18 -4
23 -23 25 -14 1 -19 0 -12 -3 6 -3 12 -10 12 -15 0 -13 -37 -11 -46 2 -3 6
-15 9 -25 6 -10 -3 -21 -1 -24 4 -3 4 -19 6 -34 3 -16 -4 -32 -1 -35 5 -4 6
-18 11 -30 11 -13 0 -29 7 -36 15 -7 8 -17 12 -22 9 -18 -11 -58 5 -52 21 4 8
1 15 -5 15 -6 0 -11 -5 -11 -11 0 -6 -7 -8 -16 -5 -9 3 -28 -3 -44 -14 -28
-20 -60 -27 -60 -12 0 4 -10 13 -21 20 -16 10 -24 11 -33 2 -8 -8 -7 -13 2
-19 15 -9 13 -71 -3 -84 -6 -6 -5 -10 4 -14 11 -5 11 -7 0 -14 -12 -8 -11 -11
1 -19 13 -8 12 -11 -4 -23 -19 -14 -19 -14 0 -25 14 -9 15 -12 4 -13 -8 -1
-21 -1 -28 0 -8 1 -20 -3 -27 -9 -10 -9 -18 -7 -34 9 -12 12 -25 21 -29 21
-12 0 -102 100 -102 114 0 6 -23 -14 -50 -44 -36 -40 -50 -50 -50 -36 0 54
107 146 224 192 46 19 51 24 76 84 22 55 99 183 120 200 3 3 22 28 42 55 45
61 106 120 133 128 11 3 58 20 105 38 153 58 244 86 298 94 40 5 61 14 81 36
44 46 111 79 160 79 34 0 60 -10 117 -44z m1754 14 c0 -5 -4 -10 -10 -10 -5 0
-10 5 -10 10 0 6 5 10 10 10 6 0 10 -4 10 -10z m4550 -176 c0 -2 -7 -4 -15 -4
-8 0 -15 4 -15 10 0 5 7 7 15 4 8 -4 15 -8 15 -10z m-5510 -24 c0 -5 6 -10 14
-10 15 0 42 -28 34 -35 -2 -3 -20 9 -39 25 -19 16 -28 29 -21 30 6 0 12 -4 12
-10z m5600 -51 c0 -10 5 -19 10 -19 6 0 10 -8 10 -17 0 -15 -4 -13 -20 7 -20
26 -28 66 -10 55 6 -3 10 -15 10 -26z m-81 -28 c9 -16 6 -20 -17 -24 -32 -6
-42 0 -22 13 8 6 11 10 7 10 -11 0 2 20 13 20 5 0 14 -8 19 -19z m32 -67 c11
-32 6 -41 -14 -23 -8 7 -12 21 -9 31 6 24 11 23 23 -8z m152 -24 c-3 -11 -9
-17 -15 -14 -5 3 -4 12 3 20 16 19 18 18 12 -6z m-23 -55 c0 -8 -4 -15 -9 -15
-13 0 -22 16 -14 24 11 11 23 6 23 -9z m-7240 -349 c0 -3 -4 -8 -10 -11 -5 -3
-10 -1 -10 4 0 6 5 11 10 11 6 0 10 -2 10 -4z m7094 -101 c-6 -16 -24 -21 -24
-7 0 11 11 22 21 22 5 0 6 -7 3 -15z m-6474 -95 c0 -5 -8 -10 -17 -10 -15 0
-16 2 -3 10 19 12 20 12 20 0z m1986 -19 c-8 -12 -46 -21 -46 -11 0 5 8 11 18
13 29 8 33 7 28 -2z m-176 -31 c-8 -5 -19 -10 -25 -10 -5 0 -3 5 5 10 8 5 20
10 25 10 6 0 3 -5 -5 -10z m-2840 -68 c12 -46 8 -50 -19 -16 -25 32 -30 84 -6
64 8 -7 19 -28 25 -48z m4450 33 c0 -8 -6 -15 -12 -15 -18 -1 -44 -40 -53 -78
-6 -29 -10 -33 -31 -28 -15 4 -26 2 -29 -6 -7 -19 -65 -21 -65 -3 0 17 39 55
57 55 7 0 13 5 13 11 0 5 -6 7 -12 3 -9 -5 -8 -2 1 9 8 10 21 15 31 12 9 -3
28 4 43 15 14 11 30 20 36 20 6 0 11 5 11 10 0 6 2 10 5 10 3 0 5 -7 5 -15z
m-3230 -5 c0 -5 -2 -10 -4 -10 -3 0 -8 5 -11 10 -3 6 -1 10 4 10 6 0 11 -4 11
-10z m1510 -10 c-34 -11 -60 -11 -35 0 11 5 29 8 40 8 16 0 15 -2 -5 -8z
m1760 -17 c0 -11 -46 -53 -57 -53 -18 0 -16 7 7 41 13 17 26 26 35 22 8 -3 15
-7 15 -10z m-2432 -105 c59 -83 72 -105 99 -176 23 -61 25 -76 19 -162 -4 -69
-11 -102 -24 -120 -42 -57 -70 -118 -60 -128 8 -8 4 -9 -13 -5 -13 3 -21 2
-17 -2 8 -8 -33 -45 -49 -45 -15 0 -54 -58 -43 -65 6 -3 15 -3 21 1 8 4 7 9
-2 15 -10 6 -8 9 9 9 20 0 21 -2 10 -20 -7 -11 -20 -20 -28 -20 -8 0 -26 -9
-39 -19 -14 -10 -31 -16 -40 -13 -9 3 -12 1 -7 -6 5 -8 -2 -12 -23 -12 -16 0
-31 -5 -33 -12 -4 -12 -98 -39 -98 -28 0 4 12 12 26 19 41 18 23 23 -27 7 -24
-8 -97 -22 -162 -32 -232 -33 -519 6 -557 76 -6 11 -19 20 -30 20 -10 0 -22 5
-25 10 -4 6 10 10 34 10 23 0 41 3 41 8 0 4 13 22 29 40 46 50 64 43 121 -45
49 -77 49 -77 59 -50 13 34 -5 70 -31 62 -12 -5 -15 -1 -11 14 8 32 23 39 92
45 35 3 67 10 71 16 4 6 14 8 23 4 9 -3 31 1 48 10 18 9 51 16 74 16 34 0 46
5 59 25 9 14 16 28 17 32 0 11 48 35 79 41 14 2 47 5 75 6 47 1 49 2 56 34 4
19 12 39 18 45 6 6 11 18 11 27 0 26 68 51 142 54 l67 2 14 -38 c17 -41 44
-54 33 -15 -3 12 -9 46 -12 75 -5 41 -3 56 10 70 15 17 14 23 -9 83 -14 35
-30 72 -35 81 -6 10 -10 25 -10 33 0 8 -5 15 -11 15 -5 0 -8 4 -4 9 3 5 1 12
-5 16 -13 8 -13 35 0 35 5 0 27 -24 48 -52z m2169 46 c-3 -3 -12 -4 -19 -1 -8
3 -5 6 6 6 11 1 17 -2 13 -5z m-261 -19 c-8 -8 -18 -15 -22 -15 -3 0 -1 7 6
15 7 8 17 15 22 15 5 0 3 -7 -6 -15z m-216 -35 c0 -5 -15 -10 -34 -10 -19 0
-38 -5 -42 -11 -4 -8 -9 -7 -15 2 -5 8 -3 17 4 21 18 11 87 10 87 -2z m630
-15 c-7 -9 -15 -13 -17 -11 -6 6 20 36 26 30 2 -2 -2 -10 -9 -19z m-2650 -22
c6 -21 10 -72 8 -113 -3 -68 -5 -75 -25 -78 -12 -2 -61 17 -109 42 -48 25 -90
44 -93 42 -3 -3 -7 -44 -9 -92 -4 -132 -21 -141 -134 -67 -40 27 -80 51 -88
54 -11 5 -6 9 15 15 48 12 210 101 330 180 44 29 83 53 87 53 4 1 12 -16 18
-36z m819 21 c2 -2 -21 -4 -52 -4 -31 0 -57 4 -57 10 0 8 99 3 109 -6z m589
-23 c3 -8 -1 -12 -9 -9 -7 2 -15 10 -17 17 -3 8 1 12 9 9 7 -2 15 -10 17 -17z
m1132 12 c0 -14 -19 -38 -25 -32 -8 8 5 39 16 39 5 0 9 -3 9 -7z m-700 -17 c0
-3 -4 -8 -10 -11 -5 -3 -10 -1 -10 4 0 6 5 11 10 11 6 0 10 -2 10 -4z m775 -6
c-3 -5 -11 -10 -16 -10 -6 0 -7 5 -4 10 3 6 11 10 16 10 6 0 7 -4 4 -10z
m-2130 -119 c23 -46 39 -94 43 -132 6 -51 11 -63 35 -77 22 -14 31 -14 47 -4
27 17 39 15 16 -3 -18 -13 -18 -16 -2 -40 25 -38 0 -31 -113 32 -2 1 -5 17 -7
35 -7 65 -23 125 -54 203 -17 44 -34 87 -37 95 -15 38 40 -45 72 -109z m1585
109 c0 -5 -2 -10 -4 -10 -3 0 -8 5 -11 10 -3 6 -1 10 4 10 6 0 11 -4 11 -10z
m2360 0 c0 -5 -2 -10 -4 -10 -3 0 -8 5 -11 10 -3 6 -1 10 4 10 6 0 11 -4 11
-10z m440 -30 c-6 -11 -13 -20 -16 -20 -2 0 0 9 6 20 6 11 13 20 16 20 2 0 0
-9 -6 -20z m-3240 -11 c0 -6 -4 -7 -10 -4 -5 3 -10 11 -10 16 0 6 5 7 10 4 6
-3 10 -11 10 -16z m-810 -162 c0 -54 -22 -75 -85 -79 -30 -1 -55 -1 -55 3 0
13 115 109 131 109 5 0 9 -15 9 -33z m-1297 -29 c27 -75 26 -108 -6 -108 -30
0 -167 66 -167 80 0 7 5 10 12 8 6 -2 39 10 72 28 34 18 64 33 67 33 4 1 13
-18 22 -41z m3731 7 c3 -8 1 -15 -4 -15 -6 0 -10 7 -10 15 0 8 2 15 4 15 2 0
6 -7 10 -15z m-3908 -110 c38 -75 26 -85 -57 -50 -119 50 -131 45 -79 -30 53
-77 34 -87 -75 -39 -43 19 -80 36 -82 37 -2 2 34 23 79 47 46 24 99 54 118 66
52 35 65 31 96 -31z m4334 -25 c0 -5 -8 -10 -17 -10 -15 0 -16 2 -3 10 19 12
20 12 20 0z m-3350 -225 c-7 -9 -15 -13 -18 -10 -3 2 1 11 8 20 7 9 15 13 18
10 3 -2 -1 -11 -8 -20z m-1366 -691 c20 -8 21 -54 2 -54 -20 0 -39 27 -32 45
6 17 8 17 30 9z m225 -158 c7 -9 8 -17 2 -20 -5 -3 -7 -14 -4 -25 6 -22 -64
-68 -80 -52 -10 10 7 75 26 99 13 16 42 15 56 -2z m166 -116 c3 -5 -1 -10 -9
-10 -9 0 -16 5 -16 10 0 6 4 10 9 10 6 0 13 -4 16 -10z m-278 -16 c-3 -3 -12
-4 -19 -1 -8 3 -5 6 6 6 11 1 17 -2 13 -5z m-17 -64 c0 -5 -4 -10 -10 -10 -5
0 -10 5 -10 10 0 6 5 10 10 10 6 0 10 -4 10 -10z m-10 -130 c-8 -6 -22 -10
-30 -10 -8 0 -4 6 10 13 27 15 44 12 20 -3z m-10 -50 c0 -5 -4 -10 -10 -10 -5
0 -10 5 -10 10 0 6 5 10 10 10 6 0 10 -4 10 -10z m55 -30 c-3 -5 -11 -10 -16
-10 -6 0 -7 5 -4 10 3 6 11 10 16 10 6 0 7 -4 4 -10z m59 -135 c3 -8 1 -15 -4
-15 -6 0 -10 7 -10 15 0 8 2 15 4 15 2 0 6 -7 10 -15z"/>
<path d="M6290 7470 c0 -5 5 -10 10 -10 6 0 10 5 10 10 0 6 -4 10 -10 10 -5 0
-10 -4 -10 -10z"/>
<path d="M5760 7442 c0 -5 7 -16 16 -23 14 -12 16 -11 13 5 -4 20 -29 35 -29
18z"/>
<path d="M6110 7400 c0 -5 5 -10 11 -10 5 0 7 5 4 10 -3 6 -8 10 -11 10 -2 0
-4 -4 -4 -10z"/>
<path d="M6251 7354 c0 -11 3 -14 6 -6 3 7 2 16 -1 19 -3 4 -6 -2 -5 -13z"/>
<path d="M5855 7350 c3 -5 8 -10 11 -10 2 0 4 5 4 10 0 6 -5 10 -11 10 -5 0
-7 -4 -4 -10z"/>
<path d="M6291 7254 c0 -11 3 -14 6 -6 3 7 2 16 -1 19 -3 4 -6 -2 -5 -13z"/>
<path d="M4988 7253 c7 -3 16 -2 19 1 4 3 -2 6 -13 5 -11 0 -14 -3 -6 -6z"/>
<path d="M4798 7243 c6 -2 18 -2 25 0 6 3 1 5 -13 5 -14 0 -19 -2 -12 -5z"/>
<path d="M6135 7110 c-3 -5 -2 -10 4 -10 5 0 13 5 16 10 3 6 2 10 -4 10 -5 0
-13 -4 -16 -10z"/>
<path d="M5080 7050 c0 -6 7 -10 15 -10 8 0 15 2 15 4 0 2 -7 6 -15 10 -8 3
-15 1 -15 -4z"/>
<path d="M6286 7045 c-3 -8 -1 -15 4 -15 6 0 10 7 10 15 0 8 -2 15 -4 15 -2 0
-6 -7 -10 -15z"/>
<path d="M5098 7023 c7 -3 16 -2 19 1 4 3 -2 6 -13 5 -11 0 -14 -3 -6 -6z"/>
<path d="M5150 6985 c7 -8 20 -15 29 -15 13 1 13 3 -3 15 -26 19 -42 19 -26 0z"/>
<path d="M5230 6980 c0 -5 5 -10 10 -10 6 0 10 5 10 10 0 6 -4 10 -10 10 -5 0
-10 -4 -10 -10z"/>
<path d="M5201 6954 c0 -11 3 -14 6 -6 3 7 2 16 -1 19 -3 4 -6 -2 -5 -13z"/>
<path d="M5330 6848 c0 -18 18 -34 28 -24 3 4 -2 14 -11 23 -16 16 -17 16 -17
1z"/>
<path d="M5360 6791 c0 -6 -7 -11 -15 -11 -29 0 -15 -18 18 -23 17 -2 33 -4
34 -3 1 0 -7 12 -18 25 -10 13 -19 18 -19 12z"/>
<path d="M5270 6733 c1 -5 9 -22 18 -40 16 -29 19 -30 36 -17 11 8 14 14 8 14
-7 0 -12 5 -12 11 0 12 -29 38 -42 39 -5 0 -8 -3 -8 -7z"/>
<path d="M5340 6725 c7 -8 17 -15 22 -15 6 0 5 7 -2 15 -7 8 -17 15 -22 15 -6
0 -5 -7 2 -15z"/>
<path d="M4997 6578 c-7 -37 -21 -208 -42 -508 -15 -216 -49 -640 -64 -800 -5
-52 -7 -98 -4 -102 2 -5 28 -8 58 -8 l54 0 5 53 c5 47 18 216 46 617 6 80 15
201 20 270 5 69 12 186 16 260 3 74 10 156 14 182 8 57 0 68 -56 68 -39 0 -42
-2 -47 -32z"/>
<path d="M6785 6519 c-11 -17 1 -21 15 -4 8 9 8 15 2 15 -6 0 -14 -5 -17 -11z"/>
<path d="M6855 6490 c-21 -23 -4 -27 19 -4 18 17 20 24 8 24 -5 0 -17 -9 -27
-20z"/>
<path d="M6960 7310 c0 -5 4 -10 9 -10 6 0 13 5 16 10 3 6 -1 10 -9 10 -9 0
-16 -4 -16 -10z"/>
<path d="M6995 7100 c-10 -11 -14 -20 -8 -20 5 0 18 9 28 20 10 11 14 20 8 20
-5 0 -18 -9 -28 -20z"/>
<path d="M4310 7100 c0 -13 18 -22 24 -11 3 5 -1 11 -9 15 -8 3 -15 1 -15 -4z"/>
<path d="M4625 6880 c-4 -7 -19 -9 -35 -5 -16 3 -31 2 -35 -4 -4 -7 6 -11 27
-10 42 1 76 13 61 22 -7 4 -15 2 -18 -3z"/>
<path d="M6670 6580 c0 -5 5 -10 10 -10 6 0 10 5 10 10 0 6 -4 10 -10 10 -5 0
-10 -4 -10 -10z"/>
<path d="M7785 6620 c-3 -5 1 -10 9 -10 9 0 16 5 16 10 0 6 -4 10 -9 10 -6 0
-13 -4 -16 -10z"/>
<path d="M1972 4511 c4 -13 18 -16 19 -4 0 4 -5 9 -11 12 -7 2 -11 -2 -8 -8z"/>
<path d="M2299 4203 c-13 -15 -12 -15 9 -4 23 12 28 21 13 21 -5 0 -15 -7 -22
-17z"/>
<path d="M1272 4061 c-36 -31 -64 -84 -60 -114 2 -13 -2 -21 -9 -19 -19 3 -16
-6 6 -18 13 -7 28 -7 46 0 15 6 32 7 38 3 7 -4 20 -6 31 -4 10 1 22 -3 27 -10
12 -20 57 27 65 68 9 47 -2 78 -33 99 -41 26 -76 24 -111 -5z"/>
<path d="M1990 3982 c0 -12 19 -26 26 -19 2 2 -2 10 -11 17 -9 8 -15 8 -15 2z"/>
<path d="M470 3840 c8 -5 22 -10 30 -10 13 0 13 1 0 10 -8 5 -22 10 -30 10
-13 0 -13 -1 0 -10z"/>
<path d="M4765 3600 c-3 -6 1 -7 9 -4 18 7 21 14 7 14 -6 0 -13 -4 -16 -10z"/>
<path d="M2335 2850 c-3 -5 -2 -10 4 -10 5 0 13 5 16 10 3 6 2 10 -4 10 -5 0
-13 -4 -16 -10z"/>
<path d="M1870 2840 c0 -5 5 -10 10 -10 6 0 10 5 10 10 0 6 -4 10 -10 10 -5 0
-10 -4 -10 -10z"/>
<path d="M3150 8860 c0 -5 4 -10 9 -10 5 0 18 -3 28 -6 16 -5 16 -4 -1 10 -23
18 -36 20 -36 6z"/>
<path d="M3450 8730 c0 -5 5 -10 10 -10 6 0 10 5 10 10 0 6 -4 10 -10 10 -5 0
-10 -4 -10 -10z"/>
<path d="M2980 8719 c19 -18 89 -54 94 -48 9 9 -25 42 -46 44 -13 2 -32 7 -43
11 -18 7 -18 6 -5 -7z"/>
<path d="M3410 8610 c0 -5 4 -10 9 -10 6 0 13 5 16 10 3 6 -1 10 -9 10 -9 0
-16 -4 -16 -10z"/>
<path d="M3265 8580 c3 -5 8 -10 11 -10 2 0 4 5 4 10 0 6 -5 10 -11 10 -5 0
-7 -4 -4 -10z"/>
<path d="M3438 8583 c7 -3 16 -2 19 1 4 3 -2 6 -13 5 -11 0 -14 -3 -6 -6z"/>
<path d="M2616 8115 c4 -8 10 -12 15 -9 11 6 2 24 -11 24 -5 0 -7 -7 -4 -15z"/>
<path d="M2575 7100 c24 -25 26 -30 12 -36 -9 -3 -20 -3 -25 0 -6 3 -12 -1
-16 -9 -3 -8 -1 -17 4 -20 6 -4 10 -13 10 -21 0 -10 -7 -13 -25 -8 -19 5 -25
2 -25 -10 0 -9 6 -16 14 -16 8 0 17 -8 21 -19 7 -23 43 -56 52 -48 3 4 -1 25
-10 47 -16 42 -13 52 9 23 17 -24 25 -13 18 25 -4 18 -13 32 -21 32 -8 0 -11
5 -8 10 4 7 11 7 18 2 21 -16 47 -22 47 -11 0 15 -77 89 -92 89 -6 0 1 -13 17
-30z"/>
<path d="M2660 7111 c0 -5 7 -11 15 -15 8 -3 15 -1 15 3 0 5 -7 11 -15 15 -8
3 -15 1 -15 -3z"/>
<path d="M2520 7074 c0 -8 5 -12 10 -9 6 4 8 11 5 16 -9 14 -15 11 -15 -7z"/>
<path d="M3845 7010 c3 -5 15 -10 26 -10 11 0 17 5 14 10 -3 6 -15 10 -26 10
-11 0 -17 -4 -14 -10z"/>
<path d="M2510 6928 c0 -10 5 -18 10 -18 13 0 13 -37 1 -42 -12 -4 -2 -58 10
-58 5 0 9 8 9 18 0 26 11 34 27 21 28 -24 13 18 -22 57 -25 28 -34 34 -35 22z"/>
<path d="M8120 6220 c0 -5 5 -10 10 -10 6 0 10 5 10 10 0 6 -4 10 -10 10 -5 0
-10 -4 -10 -10z"/>
<path d="M3035 6081 c-3 -6 -40 -31 -82 -56 -98 -60 -176 -127 -160 -137 21
-14 37 -9 37 12 0 11 5 20 11 20 8 0 10 -12 6 -35 -6 -36 -1 -40 38 -29 13 3
30 29 50 74 17 39 36 70 43 70 7 0 10 -5 7 -10 -3 -6 -3 -19 0 -31 5 -16 10
-18 20 -9 14 11 55 110 55 130 0 13 -17 13 -25 1z"/>
<path d="M2745 5920 c3 -5 11 -10 16 -10 6 0 7 5 4 10 -3 6 -11 10 -16 10 -6
0 -7 -4 -4 -10z"/>
<path d="M2780 5626 c0 -2 7 -9 15 -16 13 -11 14 -10 9 4 -5 14 -24 23 -24 12z"/>
<path d="M2360 5510 c8 -5 22 -9 30 -9 10 0 8 3 -5 9 -27 12 -43 12 -25 0z"/>
<path d="M2400 5462 c0 -13 23 -32 39 -32 11 0 10 4 -4 20 -19 21 -35 26 -35
12z"/>
<path d="M2930 5412 c0 -12 19 -26 26 -19 2 2 -2 10 -11 17 -9 8 -15 8 -15 2z"/>
<path d="M2475 5390 c3 -5 8 -10 11 -10 2 0 4 5 4 10 0 6 -5 10 -11 10 -5 0
-7 -4 -4 -10z"/>
<path d="M2465 5290 c-4 -6 6 -10 22 -10 22 0 25 2 13 10 -19 12 -27 12 -35 0z"/>
<path d="M2560 5131 c0 -10 30 -24 37 -17 3 2 -5 9 -16 16 -12 6 -21 7 -21 1z"/>
<path d="M2530 4985 c0 -8 7 -15 15 -15 8 0 15 4 15 9 0 5 -7 11 -15 15 -9 3
-15 0 -15 -9z"/>
<path d="M2540 4940 c0 -5 5 -10 11 -10 5 0 7 5 4 10 -3 6 -8 10 -11 10 -2 0
-4 -4 -4 -10z"/>
<path d="M2400 4920 c0 -5 5 -10 11 -10 5 0 7 5 4 10 -3 6 -8 10 -11 10 -2 0
-4 -4 -4 -10z"/>
<path d="M2339 4821 c13 -12 28 -21 35 -21 12 0 -5 14 -39 31 -16 8 -15 6 4
-10z"/>
<path d="M4352 4719 c22 -5 47 -5 60 1 18 7 9 9 -37 8 -56 0 -58 -1 -23 -9z"/>
<path d="M3355 4690 c-19 -8 -18 -9 4 -9 16 -1 21 -5 17 -16 -7 -20 37 -21 53
-1 10 11 19 12 42 4 36 -12 53 -3 18 10 -38 14 -112 21 -134 12z"/>
<path d="M3290 4670 c0 -5 9 -10 21 -10 11 0 17 5 14 10 -3 6 -13 10 -21 10
-8 0 -14 -4 -14 -10z"/>
<path d="M4303 4673 c15 -2 39 -2 55 0 15 2 2 4 -28 4 -30 0 -43 -2 -27 -4z"/>
<path d="M7268 4673 c7 -3 16 -2 19 1 4 3 -2 6 -13 5 -11 0 -14 -3 -6 -6z"/>
<path d="M7292 4651 c-11 -7 -11 -9 1 -14 9 -3 21 1 27 9 10 11 10 14 -1 14
-8 0 -20 -4 -27 -9z"/>
<path d="M3913 4643 c9 -2 25 -2 35 0 9 3 1 5 -18 5 -19 0 -27 -2 -17 -5z"/>
<path d="M7616 4635 c-3 -8 -1 -15 3 -15 5 0 11 7 15 15 3 8 1 15 -3 15 -5 0
-11 -7 -15 -15z"/>
<path d="M4100 4615 l-25 -15 30 6 c33 7 58 24 35 24 -8 -1 -26 -7 -40 -15z"/>
<path d="M4045 4610 c-3 -5 -2 -10 4 -10 5 0 13 5 16 10 3 6 2 10 -4 10 -5 0
-13 -4 -16 -10z"/>
<path d="M4220 4605 c-7 -8 -21 -15 -31 -15 -10 0 -21 -4 -24 -10 -16 -25 136
-3 164 24 14 15 10 16 -41 16 -37 0 -60 -5 -68 -15z"/>
<path d="M7318 4593 c7 -3 16 -2 19 1 4 3 -2 6 -13 5 -11 0 -14 -3 -6 -6z"/>
<path d="M3458 4503 c7 -3 16 -2 19 1 4 3 -2 6 -13 5 -11 0 -14 -3 -6 -6z"/>
<path d="M7662 4478 c2 -6 10 -14 16 -16 7 -2 10 2 6 12 -7 18 -28 22 -22 4z"/>
<path d="M7761 4427 c7 -15 17 -27 22 -27 5 0 16 -8 23 -17 7 -10 15 -15 19
-11 12 11 -6 48 -22 48 -9 0 -25 8 -36 17 -18 17 -18 17 -6 -10z"/>
<path d="M7640 4436 c0 -2 7 -7 16 -10 8 -3 12 -2 9 4 -6 10 -25 14 -25 6z"/>
<path d="M2561 4386 c2 -2 15 -9 29 -15 24 -11 24 -11 6 3 -16 13 -49 24 -35
12z"/>
<path d="M2625 4301 c-19 -8 -19 -8 3 -20 12 -6 39 -13 60 -15 22 -2 44 -6 51
-10 6 -4 11 -4 11 1 -1 8 -89 54 -100 52 -3 0 -14 -4 -25 -8z"/>
<path d="M7890 4290 c0 -5 5 -10 11 -10 5 0 7 5 4 10 -3 6 -8 10 -11 10 -2 0
-4 -4 -4 -10z"/>
<path d="M7990 4292 c0 -10 22 -32 32 -32 15 0 8 15 -12 28 -11 7 -20 9 -20 4z"/>
<path d="M7940 4255 c7 -8 16 -15 21 -15 5 0 6 7 3 15 -4 8 -13 15 -21 15 -13
0 -13 -3 -3 -15z"/>
<path d="M2590 4230 c0 -6 7 -10 15 -10 8 0 15 2 15 4 0 2 -7 6 -15 10 -8 3
-15 1 -15 -4z"/>
<path d="M7975 4220 c3 -5 13 -10 21 -10 8 0 12 5 9 10 -3 6 -13 10 -21 10 -8
0 -12 -4 -9 -10z"/>
<path d="M2643 4203 c9 -2 23 -2 30 0 6 3 -1 5 -18 5 -16 0 -22 -2 -12 -5z"/>
<path d="M2875 4090 c3 -4 14 -10 25 -13 11 -3 18 -2 15 3 -3 4 -14 10 -25 13
-11 3 -18 2 -15 -3z"/>
<path d="M3770 4074 c-30 -11 -32 -13 -10 -13 14 -1 32 3 40 9 24 15 8 17 -30
4z"/>
<path d="M2935 4050 c-8 -13 5 -13 25 0 13 8 13 10 -2 10 -9 0 -20 -4 -23 -10z"/>
<path d="M3840 4040 c0 -5 9 -10 19 -10 11 0 23 5 26 10 4 6 -5 10 -19 10 -14
0 -26 -4 -26 -10z"/>
<path d="M2835 4020 c-24 -6 -18 -8 30 -8 42 0 54 2 40 8 -24 10 -30 10 -70 0z"/>
<path d="M3945 4021 c-25 -5 -27 -8 -12 -14 10 -4 36 -7 58 -7 34 0 38 2 27
14 -9 10 -15 11 -20 2 -6 -8 -8 -8 -8 2 0 13 0 13 -45 3z"/>
<path d="M3840 3992 c0 -5 -12 -7 -27 -5 -20 3 -32 -2 -40 -16 -12 -19 -11
-20 20 -14 32 5 83 43 59 43 -6 0 -12 -4 -12 -8z"/>
<path d="M3900 3990 c0 -5 -7 -10 -15 -10 -8 0 -15 -6 -15 -13 0 -21 11 -27
31 -16 13 6 19 6 19 -1 0 -5 4 -10 8 -10 5 0 9 14 9 30 0 22 -5 30 -19 30 -10
0 -18 -4 -18 -10z"/>
<path d="M4178 3993 c6 -2 18 -2 25 0 6 3 1 5 -13 5 -14 0 -19 -2 -12 -5z"/>
<path d="M3954 3975 c-8 -21 6 -37 27 -32 11 3 19 1 19 -5 0 -5 8 -7 19 -3 12
4 21 0 25 -11 5 -13 10 -14 18 -6 17 17 1 43 -24 39 -13 -2 -17 -2 -10 0 6 3
12 11 12 19 0 20 -79 19 -86 -1z"/>
<path d="M4080 3960 c0 -5 7 -10 16 -10 8 0 12 5 9 10 -3 6 -10 10 -16 10 -5
0 -9 -4 -9 -10z"/>
<path d="M4138 3940 l-33 -31 40 7 c44 7 71 26 61 43 -12 19 -34 12 -68 -19z"/>
<path d="M3140 3950 c-13 -8 -12 -10 3 -10 9 0 17 5 17 10 0 12 -1 12 -20 0z"/>
<path d="M4283 3934 c-7 -3 -9 -12 -7 -19 5 -11 10 -12 25 -2 32 20 19 35 -18
21z"/>
<path d="M4240 3900 c0 -11 4 -20 9 -20 17 0 19 15 5 28 -12 11 -14 9 -14 -8z"/>
<path d="M3014 3889 c-3 -5 9 -9 25 -9 17 0 31 2 31 4 0 8 -51 13 -56 5z"/>
<path d="M4080 3876 c0 -9 7 -12 20 -9 11 3 20 9 20 14 0 5 -9 9 -20 9 -11 0
-20 -6 -20 -14z"/>
<path d="M4175 3880 c-16 -7 -17 -9 -3 -9 9 -1 20 4 23 9 7 11 7 11 -20 0z"/>
<path d="M4695 3880 c-3 -5 -2 -10 4 -10 5 0 13 5 16 10 3 6 2 10 -4 10 -5 0
-13 -4 -16 -10z"/>
<path d="M3072 3854 c-22 -15 -29 -39 -14 -48 10 -6 112 43 112 55 0 15 -74
10 -98 -7z"/>
<path d="M4050 3863 c0 -5 -14 -23 -31 -41 -32 -34 -34 -47 -6 -37 8 4 21 20
27 36 7 16 16 29 21 29 5 0 9 5 9 10 0 6 -4 10 -10 10 -5 0 -10 -3 -10 -7z"/>
<path d="M3005 3840 c-3 -5 -12 -7 -20 -3 -8 3 -15 0 -15 -6 0 -23 32 -24 53
-2 18 18 19 21 5 21 -9 0 -19 -4 -23 -10z"/>
<path d="M3200 3830 c0 -13 20 -13 40 0 12 8 9 10 -12 10 -16 0 -28 -4 -28
-10z"/>
<path d="M7746 3823 c-11 -11 -6 -23 8 -23 8 0 17 4 20 9 7 10 -19 23 -28 14z"/>
<path d="M3150 3810 c0 -13 11 -13 30 0 12 8 11 10 -7 10 -13 0 -23 -4 -23
-10z"/>
<path d="M4637 3814 c-4 -4 -7 -14 -7 -23 0 -11 3 -12 11 -4 6 6 10 16 7 23
-2 6 -7 8 -11 4z"/>
<path d="M4850 3766 c0 -2 9 -6 20 -9 11 -3 18 -1 14 4 -5 9 -34 13 -34 5z"/>
<path d="M4975 3710 c-3 -5 -1 -10 4 -10 6 0 11 5 11 10 0 6 -2 10 -4 10 -3 0
-8 -4 -11 -10z"/>
<path d="M6673 3712 c-13 -2 -23 -10 -23 -18 0 -18 10 -17 34 1 23 17 20 22
-11 17z"/>
<path d="M7665 3710 c3 -5 8 -10 11 -10 2 0 4 5 4 10 0 6 -5 10 -11 10 -5 0
-7 -4 -4 -10z"/>
<path d="M3970 3690 c0 -5 5 -10 11 -10 5 0 7 5 4 10 -3 6 -8 10 -11 10 -2 0
-4 -4 -4 -10z"/>
<path d="M4321 3681 c-7 -5 -12 -14 -9 -21 2 -7 10 -4 22 9 19 21 12 28 -13
12z"/>
<path d="M4030 3670 c-8 -5 -11 -12 -8 -16 10 -9 38 3 38 16 0 12 -10 13 -30
0z"/>
<path d="M3615 3660 c-3 -5 -1 -10 4 -10 6 0 11 5 11 10 0 6 -2 10 -4 10 -3 0
-8 -4 -11 -10z"/>
<path d="M5610 3640 c0 -5 5 -10 10 -10 6 0 10 5 10 10 0 6 -4 10 -10 10 -5 0
-10 -4 -10 -10z"/>
<path d="M3675 3629 c-4 -6 -5 -12 -2 -15 2 -3 7 2 10 11 7 17 1 20 -8 4z"/>
<path d="M4006 3621 c-17 -19 -17 -19 6 -14 12 3 28 10 35 15 7 5 17 7 23 3 5
-3 10 -1 10 4 0 19 -56 12 -74 -8z"/>
<path d="M6330 3610 c0 -5 7 -10 15 -10 8 0 15 5 15 10 0 6 -7 10 -15 10 -8 0
-15 -4 -15 -10z"/>
<path d="M4038 3593 c7 -3 16 -2 19 1 4 3 -2 6 -13 5 -11 0 -14 -3 -6 -6z"/>
<path d="M6625 3572 c-42 -5 -53 -20 -21 -28 19 -4 33 -2 44 9 19 20 15 23
-23 19z"/>
<path d="M7420 3546 c0 -9 5 -16 10 -16 6 0 10 4 10 9 0 6 -4 13 -10 16 -5 3
-10 -1 -10 -9z"/>
<path d="M6808 3533 c7 -3 16 -2 19 1 4 3 -2 6 -13 5 -11 0 -14 -3 -6 -6z"/>
<path d="M6736 3504 c-9 -24 -9 -24 29 -24 27 0 35 4 35 18 0 15 -2 15 -10 2
-9 -13 -12 -13 -24 3 -16 21 -22 21 -30 1z"/>
<path d="M7070 3509 c0 -5 5 -7 10 -4 6 3 10 8 10 11 0 2 -4 4 -10 4 -5 0 -10
-5 -10 -11z"/>
<path d="M7140 3488 c0 -18 18 -34 28 -24 3 4 -2 14 -11 23 -16 16 -17 16 -17
1z"/>
<path d="M6640 3461 c0 -5 -10 -12 -22 -14 -22 -4 -22 -4 -2 -6 12 0 27 6 34
14 9 10 9 15 1 15 -6 0 -11 -4 -11 -9z"/>
<path d="M5390 3165 c0 -8 7 -15 15 -15 8 0 15 4 15 9 0 5 -7 11 -15 15 -9 3
-15 0 -15 -9z"/>
<path d="M5431 3124 c0 -11 3 -14 6 -6 3 7 2 16 -1 19 -3 4 -6 -2 -5 -13z"/>
<path d="M5535 3120 c-3 -5 1 -10 10 -10 9 0 13 5 10 10 -3 6 -8 10 -10 10 -2
0 -7 -4 -10 -10z"/>
<path d="M5340 3100 c0 -5 5 -10 10 -10 6 0 10 5 10 10 0 6 -4 10 -10 10 -5 0
-10 -4 -10 -10z"/>
<path d="M5521 3054 c0 -11 3 -14 6 -6 3 7 2 16 -1 19 -3 4 -6 -2 -5 -13z"/>
<path d="M6587 3051 c-4 -17 -3 -21 5 -13 5 5 8 16 6 23 -3 8 -7 3 -11 -10z"/>
<path d="M5584 2955 c11 -8 22 -12 25 -9 6 6 -19 24 -34 24 -5 -1 -1 -7 9 -15z"/>
<path d="M5207 2933 c-14 -14 -6 -43 15 -54 13 -7 29 -18 36 -26 7 -7 18 -13
23 -13 12 0 11 17 -2 26 -6 3 -8 16 -5 29 4 17 0 25 -20 33 -29 14 -38 15 -47
5z"/>
<path d="M5940 2850 c0 -5 4 -10 9 -10 6 0 13 5 16 10 3 6 -1 10 -9 10 -9 0
-16 -4 -16 -10z"/>
<path d="M5300 2810 c32 -25 43 -25 30 0 -6 11 -21 20 -33 20 -22 0 -22 -1 3
-20z"/>
<path d="M6653 2794 c-20 -20 -24 -32 -20 -59 3 -18 15 -43 26 -54 24 -24 40
-28 21 -6 -18 21 -6 29 19 13 12 -7 20 -21 19 -32 -2 -11 2 -21 8 -23 15 -5 5
60 -11 69 -18 11 3 53 34 70 21 11 26 9 52 -20 16 -18 29 -39 29 -47 0 -8 5
-15 10 -15 18 0 11 46 -11 74 -47 60 -131 75 -176 30z"/>
<path d="M5960 2780 c0 -5 5 -10 10 -10 6 0 10 5 10 10 0 6 -4 10 -10 10 -5 0
-10 -4 -10 -10z"/>
<path d="M6106 2471 c15 -14 54 -23 54 -13 0 5 -10 12 -22 16 -33 8 -44 8 -32
-3z"/>
<path d="M1580 1840 c0 -5 7 -10 16 -10 8 0 12 5 9 10 -3 6 -10 10 -16 10 -5
0 -9 -4 -9 -10z"/>
<path d="M1268 1803 c7 -3 16 -2 19 1 4 3 -2 6 -13 5 -11 0 -14 -3 -6 -6z"/>
<path d="M1325 1560 c-3 -5 -1 -10 4 -10 6 0 11 5 11 10 0 6 -2 10 -4 10 -3 0
-8 -4 -11 -10z"/>
<path d="M3096 1182 c-4 -7 -2 -38 3 -69 6 -32 13 -92 16 -133 4 -41 8 -88 10
-105 20 -175 26 -291 26 -503 l1 -204 163 3 164 4 36 35 c20 19 44 48 52 64
21 41 29 181 14 257 -14 69 -28 97 -79 151 l-35 37 18 28 c24 36 32 162 15
235 -23 96 -68 154 -140 184 -45 19 -254 31 -264 16z m261 -167 c33 -22 53
-73 53 -135 0 -41 -5 -56 -25 -76 -21 -21 -33 -25 -77 -22 l-52 3 -14 113 c-8
62 -11 119 -8 127 7 19 88 13 123 -10z m51 -399 c15 -8 35 -23 45 -34 23 -25
37 -116 27 -172 -12 -63 -36 -80 -120 -80 -79 0 -76 -5 -79 130 -1 47 -4 104
-7 128 l-6 42 56 0 c32 0 69 -6 84 -14z"/>
<path d="M3675 1170 c-4 -6 -4 -21 -1 -33 3 -12 12 -90 21 -172 8 -83 19 -190
24 -240 6 -49 17 -193 26 -320 9 -126 18 -231 20 -234 2 -2 32 -4 67 -5 l63
-1 -1 40 c-1 22 -5 108 -9 191 l-7 151 28 6 c34 6 94 -2 94 -14 0 -4 39 -89
87 -189 l87 -180 83 0 c76 0 82 1 73 18 -5 9 -52 103 -103 208 l-94 191 38 40
c62 67 71 159 32 322 -21 82 -78 169 -135 201 -40 23 -54 25 -214 28 -121 3
-174 0 -179 -8z m329 -156 c49 -22 63 -36 80 -87 29 -87 16 -155 -38 -190 -24
-16 -167 -29 -180 -16 -6 6 -35 291 -30 299 6 12 139 7 168 -6z"/>
<path d="M4430 968 c-1 -117 -3 -242 -5 -278 -2 -36 -6 -132 -10 -215 -3 -82
-8 -185 -12 -227 l-6 -78 62 0 c59 0 62 1 61 23 -1 12 -2 70 -1 130 l1 107 88
0 89 0 16 -57 c9 -32 26 -92 38 -133 l21 -75 54 -2 c30 -1 54 0 54 2 0 3 -6
24 -14 47 -8 24 -20 63 -26 88 -9 38 -31 110 -111 365 -14 45 -145 435 -159
471 -12 35 -32 44 -97 44 l-43 0 0 -212z m162 -173 c31 -104 55 -192 52 -197
-9 -13 -114 -10 -119 5 -9 29 -10 387 0 384 5 -2 36 -88 67 -192z"/>
<path d="M4783 1163 c-3 -6 8 -51 22 -100 15 -48 38 -122 50 -163 13 -41 39
-127 58 -190 20 -63 61 -205 92 -315 31 -110 58 -208 61 -217 4 -15 17 -18 73
-18 l68 0 7 48 c3 26 9 75 11 108 3 32 10 100 16 149 6 50 13 117 16 150 2 33
10 105 17 160 7 55 13 167 15 248 l3 147 -56 0 -56 0 0 -57 c0 -32 -7 -141
-15 -243 -8 -102 -18 -221 -21 -265 -4 -44 -8 -93 -9 -110 -2 -16 -3 -49 -4
-72 -1 -46 -15 -58 -24 -20 -41 168 -65 261 -154 592 -13 50 -29 109 -34 132
l-10 41 -61 4 c-40 2 -62 -1 -65 -9z"/>
<path d="M5400 1141 c0 -11 6 -50 14 -88 8 -37 22 -126 31 -198 9 -71 18 -137
20 -145 4 -14 13 -105 20 -195 2 -22 6 -69 9 -105 3 -36 8 -107 12 -158 l6
-92 125 0 124 0 -7 57 c-4 32 -8 65 -10 73 -1 8 -3 20 -3 27 -1 8 -24 13 -63
15 l-63 3 -12 100 c-6 55 -12 115 -12 133 l-1 32 53 0 c30 0 56 2 58 4 2 3 0
39 -5 80 l-10 75 -60 3 -61 3 -17 85 c-9 47 -19 100 -21 118 l-6 32 61 0 61 0
-7 58 c-4 31 -9 66 -10 77 -2 18 -11 20 -114 23 -106 2 -112 2 -112 -17z"/>
<path d="M5939 1145 c-85 -46 -89 -242 -8 -411 25 -53 46 -78 130 -150 55 -47
107 -96 115 -109 17 -26 22 -95 10 -132 -17 -53 -96 -41 -156 23 l-43 46 -13
-48 c-22 -82 -18 -96 35 -152 126 -133 246 -102 282 74 10 51 10 74 -4 147
-28 155 -72 222 -209 322 -78 56 -108 103 -108 167 0 38 4 50 23 62 31 20 70
10 112 -31 l35 -34 9 23 c4 13 11 39 15 59 6 32 2 41 -34 81 -63 72 -132 95
-191 63z"/>
<path d="M6460 1143 c-40 -15 -75 -51 -98 -101 -48 -105 -29 -361 42 -582 72
-222 164 -330 283 -330 44 0 58 5 86 30 56 49 79 117 85 251 14 335 -125 672
-300 724 -54 16 -73 17 -98 8z m124 -177 c85 -44 153 -223 163 -426 8 -169
-18 -240 -87 -240 -102 0 -209 257 -210 503 0 154 45 209 134 163z"/>
<path d="M6985 1063 c20 -150 29 -200 41 -219 7 -12 54 -118 104 -235 50 -118
98 -229 106 -246 8 -18 20 -48 28 -65 8 -18 28 -63 45 -100 l30 -68 50 1 c41
1 51 5 51 18 0 76 -163 916 -184 950 -10 16 -86 14 -86 -1 0 -7 7 -44 16 -83
8 -38 37 -178 64 -310 27 -132 52 -251 56 -264 14 -47 -13 -12 -37 46 -29 75
-55 134 -188 427 -45 98 -81 182 -81 187 0 5 -5 9 -11 9 -6 0 -8 -17 -4 -47z"/>
<path d="M7367 1103 c-2 -4 33 -84 79 -178 46 -93 97 -204 114 -245 17 -41 37
-88 44 -105 34 -80 39 -105 66 -320 16 -126 16 -125 56 -125 34 0 34 0 29 38
-35 274 -36 298 -38 622 l-2 295 -34 3 -33 3 3 -199 c2 -110 1 -203 -2 -206
-3 -3 -24 40 -46 96 -23 57 -62 151 -88 211 -46 105 -48 107 -80 107 -18 0
-40 3 -48 6 -8 3 -17 2 -20 -3z"/>
<path d="M7835 1070 c-4 -6 -4 -37 -1 -68 7 -74 17 -323 25 -632 l6 -245 30 0
30 0 0 120 0 120 57 2 c36 1 61 -3 67 -11 6 -7 26 -62 44 -122 l33 -109 49 -3
c43 -3 47 -1 40 15 -4 10 -20 58 -36 108 -42 132 -220 667 -229 690 -5 11 -16
46 -26 78 -12 42 -22 57 -35 57 -9 0 -24 3 -32 6 -8 3 -18 0 -22 -6z m84 -237
c40 -151 51 -192 59 -214 5 -13 12 -41 16 -61 l7 -38 -45 0 -44 0 -6 128 c-4
70 -9 148 -12 175 -6 57 11 63 25 10z"/>
<path d="M7020 811 c0 -25 32 -283 55 -451 8 -58 17 -127 20 -154 3 -27 8 -52
11 -57 5 -9 34 -13 34 -4 0 2 -15 109 -34 237 -48 321 -86 512 -86 429z"/>
</g>
</svg>
