<?xml version="1.0" standalone="no"?>
<!DOCTYPE svg PUBLIC "-//W3C//DTD SVG 20010904//EN"
 "http://www.w3.org/TR/2001/REC-SVG-20010904/DTD/svg10.dtd">
<svg version="1.0" xmlns="http://www.w3.org/2000/svg"
 width="1024.000000pt" height="1024.000000pt" viewBox="0 0 1024.000000 1024.000000"
 preserveAspectRatio="xMidYMid meet">
<metadata>
Created by potrace 1.14, written by Peter Selinger 2001-2017
</metadata>
<g transform="translate(0.000000,1024.000000) scale(0.100000,-0.100000)"
fill="#000000" stroke="none">
<path d="M2489 10236 c-2 -2 -42 -7 -89 -11 -47 -4 -87 -8 -90 -10 -3 -2 -27
-6 -55 -9 -27 -4 -99 -18 -160 -32 -60 -13 -120 -27 -131 -29 -54 -12 -270
-91 -369 -135 -366 -162 -730 -436 -975 -736 -325 -399 -506 -806 -594 -1338
-18 -108 -21 -471 -21 -2811 0 -2264 4 -2788 20 -2815 1 -3 6 -27 9 -55 23
-171 112 -477 186 -641 114 -250 256 -480 400 -648 216 -252 475 -469 735
-617 246 -139 588 -264 835 -304 19 -3 60 -10 90 -15 30 -5 84 -13 120 -17 85
-10 5320 -10 5425 0 1051 103 1956 831 2283 1837 30 93 60 200 68 250 3 14 7
32 9 40 7 25 15 77 35 220 18 129 19 249 16 2800 -1 1466 -5 2681 -9 2700 -7
35 -21 118 -32 195 -15 100 -105 406 -150 510 -7 17 -20 48 -30 70 -202 462
-545 871 -965 1150 -166 111 -266 164 -485 260 -87 38 -314 109 -420 131 -37
8 -240 43 -290 51 -51 7 -5358 16 -5366 9z"/>
</g>
</svg>
